<svg width="386" height="216" viewBox="0 0 386 216" fill="none" xmlns="http://www.w3.org/2000/svg">
<path d="M39.858 209.03L192.518 56.3698L345.178 209.03C351.072 214.928 359.67 217.229 367.729 215.073C375.784 212.913 382.077 206.62 384.237 198.565C386.393 190.506 384.092 181.909 378.194 176.014L209.024 6.8438C204.649 2.461 198.708 0 192.516 0C186.324 0 180.383 2.4609 176.008 6.8438L6.83796 176.014C0.939564 181.908 -1.36125 190.506 0.794949 198.565C2.95515 206.619 9.24806 212.913 17.303 215.073C25.3616 217.229 33.959 214.928 39.854 209.03H39.858Z" fill="#CCC5AE"/>
</svg>
