<svg width="63" height="63" viewBox="0 0 63 63" fill="none" xmlns="http://www.w3.org/2000/svg">
<circle cx="31.5" cy="31.5" r="26.5" fill="#F3F3F3"/>
<path d="M53.7746 9.22501C41.4747 -3.075 21.5264 -3.075 9.22537 9.22501C-3.07568 21.525 -3.07456 41.4734 9.22537 53.7746C21.5253 66.0757 41.4736 66.0746 53.7746 53.7746C66.0757 41.4746 66.0746 21.5261 53.7746 9.22501ZM19.2068 52.3909L10.6003 43.7843C10.3568 43.5408 10.3568 43.1317 10.6003 42.8804L21.989 31.4994L10.6003 20.1106C10.3568 19.8593 10.3568 19.4581 10.6003 19.2067L19.2068 10.6001C19.4582 10.3566 19.8594 10.3566 20.1107 10.6001L31.4995 21.9889L42.8803 10.6001C43.1317 10.3566 43.5403 10.3566 43.7842 10.6001L52.3908 19.2067C52.6422 19.4581 52.6422 19.8593 52.3908 20.1106L41.0021 31.4994L52.3908 42.8804C52.6422 43.1317 52.6422 43.5404 52.3908 43.7843L43.7842 52.3909C43.5408 52.6423 43.1317 52.6423 42.8803 52.3909L31.4995 41.0021L20.1107 52.3909C19.8594 52.6423 19.4582 52.6423 19.2068 52.3909Z" fill="#EB5757"/>
</svg>
