<svg width="297" height="254" viewBox="0 0 297 254" fill="none" xmlns="http://www.w3.org/2000/svg">
<path d="M227.809 62.3758L275.169 14.9491L260.22 0L208.891 51.3292C190.503 42.135 170.328 36.3801 148.167 36.3801C93.9934 36.3801 51.7919 70.9084 0 126.998C23.0185 151.736 44.1852 175.086 68.3261 191.889L21.1643 239.051L36.1134 254L86.9794 203.134C104.839 212.196 124.683 217.62 148.163 217.62C214.246 217.62 262.863 163.512 296.33 127.994C277.809 105.438 255.055 80.5012 227.804 62.377L227.809 62.3758ZM88.9013 127.001C88.9013 93.6632 115.492 66.6098 148.168 66.6098C160.934 66.6098 172.775 70.7108 182.432 77.7882L148.896 111.324C148.433 109.604 148.168 107.752 148.168 105.834C148.168 100.608 150.086 95.8457 153.195 92.1416C151.541 91.877 149.888 91.7447 148.168 91.7447C129.118 91.7447 113.574 107.554 113.574 127.001C113.574 132.689 114.897 138.113 117.278 142.876L99.2203 161C92.7379 151.276 88.9019 139.568 88.9019 127.001L88.9013 127.001ZM148.168 187.392C135.402 187.392 123.561 183.291 113.905 176.213L132.029 158.089C136.857 160.735 142.347 162.19 148.169 162.19C167.219 162.19 182.763 146.381 182.763 126.934C182.763 125.413 182.631 123.892 182.498 122.37C178.86 125.215 174.362 126.934 169.402 126.934C167.483 126.934 165.697 126.67 163.912 126.207L197.183 92.9351C203.666 102.593 207.502 114.3 207.502 126.934C207.435 160.338 180.845 187.392 148.169 187.392L148.168 187.392Z" fill="#6F6F6F"/>
</svg>
