<svg width="192" height="173" viewBox="0 0 192 173" fill="none" xmlns="http://www.w3.org/2000/svg">
<path d="M55.3406 6.75381e-05C64.7646 -0.0182996 73.8104 3.71025 80.4837 10.3621C87.1586 17.0154 90.9163 26.0491 90.9284 35.4731C90.9407 44.8986 87.206 53.9413 80.5496 60.6115C73.8916 67.2817 64.8563 71.0335 55.4311 71.0393C46.0072 71.0455 36.9676 67.3047 30.3002 60.6436C23.6343 53.9809 19.8892 44.9445 19.8892 35.5189C19.8892 26.1102 23.6223 17.0859 30.268 10.4279C36.9155 3.76832 45.9323 0.0184837 55.3406 6.75381e-05V6.75381e-05Z" fill="#6F6F6F"/>
<path d="M0.00195809 144.615C0.0203252 129.945 5.85633 115.88 16.2293 105.507C26.6039 95.1323 40.6683 89.2964 55.3389 89.2779C70.0158 89.2489 84.0944 95.1017 94.4243 105.53C98.0472 109.119 101.142 113.206 103.612 117.668C108.203 125.925 110.566 135.236 110.469 144.684V172.729H0L0.00195809 144.615ZM192 172.66H127.955V144.615C127.94 141.75 127.757 138.888 127.405 136.044C127.405 135.153 127.405 134.261 126.994 133.37C126.994 131.451 126.308 129.53 125.896 127.61C125.485 125.691 125.416 125.622 125.073 124.594C124.73 123.565 123.975 121.027 123.29 119.313C122.604 117.599 122.604 117.461 122.261 116.57L121.849 115.542H121.852C130.644 109.058 141.534 106.076 152.403 107.174C163.272 108.273 173.345 113.373 180.663 121.484C187.98 129.594 192.021 140.137 192 151.061L192 172.66Z" fill="#6F6F6F"/>
<path d="M147.911 40.2505C154.822 40.2505 161.449 42.9964 166.335 47.8834C171.222 52.7692 173.968 59.3966 173.968 66.3074C173.968 73.2181 171.222 79.8471 166.335 84.7325C161.449 89.6198 154.822 92.3642 147.911 92.3642C141 92.3642 134.371 89.6199 129.486 84.7325C124.598 79.8468 121.854 73.2177 121.854 66.3074C121.871 59.4029 124.623 52.786 129.505 47.9034C134.388 43.0207 141.005 40.2689 147.911 40.2505Z" fill="#6F6F6F"/>
</svg>
