<svg width="226" height="226" viewBox="0 0 226 226" fill="none" xmlns="http://www.w3.org/2000/svg">
<path d="M113 0C50.6915 0 0 50.6931 0 113C0 175.307 50.6931 226 113 226C175.314 226 226 175.307 226 113C226 50.6931 175.309 0 113 0V0ZM164.926 117.909L89.315 172.349C88.2665 173.104 87.026 173.488 85.7813 173.488C84.8382 173.488 83.8931 173.267 83.0239 172.824C81.0028 171.788 79.7307 169.708 79.7307 167.44V58.5604C79.7307 56.2926 81.0008 54.2103 83.0218 53.1765C85.0387 52.1449 87.4711 52.32 89.3126 53.6512L164.923 108.091C166.501 109.228 167.44 111.055 167.44 113C167.44 114.945 166.501 116.772 164.925 117.909L164.926 117.909Z" fill="#6F6F6F"/>
</svg>
