<svg width="195" height="183" viewBox="0 0 195 183" fill="none" xmlns="http://www.w3.org/2000/svg">
<path d="M30.0096 0.00508231C24.6656 0.0347012 19.4932 3.73551 17.515 9.63754L1.65821 56.7921C-3.26796 71.4334 2.91466 82.6166 18.4349 85.7202C34.6521 88.9877 50.8688 92.2239 67.09 95.474C77.9384 97.6518 87.7828 87.6422 81.0297 75.9349L74.4214 64.4895L83.2916 59.1503C113.66 40.8519 149.921 64.8682 145.783 100.474C141.206 139.877 93.5319 153.691 67.9552 125.537C50.7156 106.553 20.5133 137.264 40.4845 156.139C99.7032 212.105 188.461 171.577 194.643 101.418C198.072 62.4929 176.446 27.9566 144.978 12.2331C129.255 4.37614 110.849 1.49084 92.2285 4.18778C77.6655 6.29381 64.524 11.8356 49.344 21.0658L41.3904 7.29138C38.4317 2.17206 34.1636 -0.0292385 30.012 0.000293003L30.0096 0.00508231Z" fill="#6F6F6F"/>
</svg>
