<svg width="200" height="200" viewBox="0 0 200 200" fill="none" xmlns="http://www.w3.org/2000/svg">
<path d="M199.37 88.9281C199.051 86.1069 195.768 84.0072 192.928 84.0072C186.888 84.1398 181.061 81.7874 176.81 77.4984C172.558 73.2094 170.255 67.3635 170.444 61.3279C170.631 55.2934 173.291 49.601 177.801 45.5842C178.848 44.6355 179.495 43.324 179.61 41.916C179.726 40.5082 179.3 39.1088 178.421 38.0024C173.746 32.0936 168.424 26.7263 162.554 22.0019C161.443 21.1146 160.036 20.6862 158.619 20.8006C157.203 20.9164 155.882 21.568 154.93 22.6214C151.797 25.9197 147.755 28.2134 143.318 29.2138C138.879 30.2142 134.244 29.8766 129.998 28.2414C125.792 26.4429 122.241 23.393 119.829 19.5073C117.416 15.6201 116.259 11.0872 116.513 6.52068C116.588 5.10172 116.122 3.70651 115.208 2.61815C114.295 1.52987 113.001 0.829481 111.59 0.65925C104.119 -0.198797 96.5747 -0.219728 89.0991 0.599255C87.7076 0.754124 86.4248 1.42662 85.5063 2.4828C84.5866 3.53758 84.098 4.90071 84.1371 6.30031C84.299 10.8265 83.0722 15.2955 80.6227 19.1058C78.1731 22.9162 74.6167 25.8879 70.4311 27.6224C66.202 29.1934 61.6074 29.499 57.2078 28.5C52.8087 27.5024 48.7957 25.2435 45.6596 22.0025C44.7119 20.9659 43.4083 20.3269 42.0097 20.2111C40.6098 20.0967 39.2196 20.5152 38.1157 21.3817C32.1308 26.0793 26.7069 31.4484 21.9489 37.3836C21.0668 38.4928 20.6355 39.895 20.743 41.3082C20.8505 42.7202 21.4883 44.0415 22.5282 45.0043C25.9505 48.0696 28.333 52.1229 29.3478 56.6029C30.3624 61.083 29.9577 65.7667 28.1907 70.0067C26.2883 74.1393 23.208 77.6189 19.3348 80.0106C15.463 82.402 10.9702 83.5977 6.42126 83.4484C5.00878 83.3591 3.6172 83.8223 2.54267 84.7404C1.46656 85.6598 0.791029 86.9602 0.658432 88.3679C-0.219477 95.9176 -0.219477 103.542 0.658432 111.09C0.918038 114.011 4.32085 116.011 7.18218 116.011C11.5914 115.975 15.9084 117.264 19.5765 119.711C23.2447 122.157 26.0917 125.648 27.7514 129.732C29.4472 133.932 29.8199 138.548 28.8233 142.966C27.8254 147.383 25.5043 151.39 22.1685 154.455C21.1272 155.403 20.4838 156.71 20.3679 158.114C20.2535 159.516 20.675 160.911 21.5487 162.016C26.198 167.933 31.5087 173.302 37.3765 178.017C38.4819 178.908 39.886 179.345 41.3026 179.236C42.7192 179.129 44.041 178.485 45 177.438C48.1376 174.134 52.1837 171.833 56.6279 170.826C61.0721 169.818 65.7157 170.149 69.9713 171.777C74.1908 173.555 77.7538 176.596 80.1728 180.483C82.5916 184.369 83.7459 188.909 83.4779 193.478C83.4012 194.897 83.8673 196.293 84.7815 197.381C85.6958 198.469 86.9882 199.168 88.3993 199.34C92.2264 199.774 96.0743 199.994 99.9254 200C103.596 200.007 107.264 199.8 110.91 199.379C112.31 199.224 113.598 198.546 114.518 197.481C115.438 196.417 115.922 195.044 115.873 193.639C115.703 189.116 116.92 184.648 119.364 180.836C121.806 177.024 125.357 174.053 129.539 172.317C133.765 170.753 138.357 170.458 142.748 171.471C147.139 172.484 151.138 174.76 154.251 178.016C155.198 179.053 156.502 179.692 157.9 179.808C159.3 179.922 160.691 179.504 161.794 178.637C167.77 173.93 173.193 168.561 177.961 162.635C178.853 161.53 179.29 160.125 179.181 158.711C179.074 157.294 178.43 155.973 177.382 155.015C172.854 151.024 170.165 145.351 169.941 139.321C169.719 133.292 171.983 127.436 176.204 123.124C180.426 118.811 186.234 116.419 192.269 116.51H193.51H193.508C194.928 116.587 196.324 116.121 197.412 115.207C198.501 114.293 199.202 113.001 199.372 111.59C200.209 104.059 200.209 96.458 199.372 88.9279L199.37 88.9281ZM100.145 133.55C91.2991 133.55 82.8144 130.038 76.5586 123.785C70.3029 117.532 66.7898 109.051 66.7898 100.207C66.7898 91.364 70.3029 82.8839 76.5586 76.6305C82.8144 70.377 91.2991 66.8638 100.145 66.8638C108.992 66.8638 117.475 70.377 123.731 76.6305C129.986 82.8839 133.501 91.364 133.501 100.207C133.49 109.047 129.972 117.522 123.72 123.773C117.467 130.025 108.989 133.541 100.145 133.55V133.55Z" fill="#6F6F6F"/>
</svg>
