<svg width="310" height="177" viewBox="0 0 310 177" fill="none" xmlns="http://www.w3.org/2000/svg">
<path d="M154.875 0C98.2489 0 54.1367 33.7406 0 88.5C46.6009 135.308 85.7312 177 154.875 177C223.949 177 274.767 124.177 309.75 89.4672C273.935 48.8128 223.184 0 154.875 0ZM154.875 151.626C120.72 151.626 92.925 123.278 92.925 88.5006C92.925 53.6538 120.72 25.3755 154.875 25.3755C189.03 25.3755 216.825 53.7233 216.825 88.5006C216.825 123.348 189.03 151.626 154.875 151.626Z" fill="#6F6F6F"/>
<path d="M154.875 66.3751C154.875 60.913 156.88 55.9347 160.13 52.0628C158.401 51.7862 156.672 51.6479 154.875 51.6479C134.962 51.6479 118.714 68.1728 118.714 88.5C118.714 108.827 134.962 125.352 154.875 125.352C174.787 125.352 191.035 108.827 191.035 88.5C191.035 86.9098 190.897 85.3195 190.759 83.7293C186.956 86.7023 182.255 88.5 177.069 88.5C164.762 88.5 154.875 78.6126 154.875 66.375L154.875 66.3751Z" fill="#6F6F6F"/>
</svg>
