<svg width="300" height="300" viewBox="0 0 300 300" fill="none" xmlns="http://www.w3.org/2000/svg">
<path fill-rule="evenodd" clip-rule="evenodd" d="M150.049 190.995C139.531 164.185 128.848 164.528 104.273 176.482C98.5671 155.086 94.6867 150.248 71.666 149.609C72.5706 127.914 68.8344 124.448 53.7505 109.835C82.1696 107.889 105.117 105.6 114.485 121.659C123.857 137.718 122.849 146.476 140.104 154.982V137.425C143.313 142.682 143.622 145.466 150.048 146.024C156.472 145.465 156.783 142.682 159.992 137.425V154.982C177.248 146.476 176.241 137.717 185.611 121.659C194.983 105.6 217.927 107.888 246.345 109.835C231.261 124.448 227.525 127.914 228.43 149.609C205.409 150.248 201.529 155.087 195.823 176.482C171.248 164.528 160.566 164.186 150.047 190.995H150.049Z" fill="#454545"/>
</svg>
