<svg width="300" height="300" viewBox="0 0 300 300" fill="none" xmlns="http://www.w3.org/2000/svg">
<path fill-rule="evenodd" clip-rule="evenodd" d="M161.033 121.492C174.999 125.482 185.641 138.784 185.641 154.081C185.641 173.036 170.344 188 151.389 188C132.766 188 117.47 173.036 117.47 154.081C117.47 138.784 127.779 125.815 142.078 121.492L141.413 121.825V114.176H161.698V121.825L161.033 121.492Z" fill="#454545" stroke="#454545" stroke-width="16.8104" stroke-linecap="round" stroke-linejoin="round"/>
<path d="M151.389 114.176C151.389 99.5443 173.004 92.5606 178.989 109.187C182.648 119.496 188.633 122.822 193.621 122.157C201.27 121.492 207.587 110.85 200.937 101.539" stroke="#454545" stroke-width="5" stroke-linecap="round" stroke-linejoin="round"/>
<path d="M195.949 89.9004L205.593 99.5441" stroke="#454545" stroke-width="5" stroke-linecap="round" stroke-linejoin="round"/>
<path d="M205.593 89.9004L195.949 99.5441" stroke="#454545" stroke-width="5" stroke-linecap="round" stroke-linejoin="round"/>
</svg>
