<svg width="300" height="300" viewBox="0 0 300 300" fill="none" xmlns="http://www.w3.org/2000/svg">
<path d="M124.817 132.173C122.258 131.4 120.086 130.297 118.339 128.885V176.982C120.002 178.554 122.178 179.768 124.817 180.608V132.173Z" fill="#454545"/>
<path d="M114.066 182.896V186.005C115.545 197.348 128.574 198.56 131.561 198.689V191.959C128.847 191.837 117.926 190.846 114.066 182.896V182.896Z" fill="#454545"/>
<path d="M114.066 114.48V178.598C115.489 189.369 128.571 190.593 131.559 190.729L131.56 123.541C128.849 123.418 117.927 122.428 114.066 114.481L114.066 114.48ZM117.105 126.041L118.153 127.072C119.992 128.88 122.497 130.242 125.599 131.119L126.047 131.246V182.251L125.265 182.033C121.965 181.108 119.283 179.645 117.288 177.684L117.103 177.501L117.105 126.041Z" fill="#454545"/>
<path d="M176.903 101.497L141.277 123.078V179.22L176.903 157.634V101.497Z" fill="#454545"/>
<path d="M181.061 85.0043L167.89 75.7669V69.3081L114.063 101.918V110.187C115.489 120.981 128.572 122.185 131.557 122.312V114.607C128.948 114.491 118.723 113.546 115.163 105.793L164.92 75.6378L179.567 85.9092L132.792 114.25V198.332L186 166.095V82.0123L181.061 85.0043ZM178.135 158.328L140.043 181.408V122.384L178.135 99.3088V158.328Z" fill="#454545"/>
</svg>
