<svg width="300" height="300" viewBox="0 0 300 300" fill="none" xmlns="http://www.w3.org/2000/svg">
<path d="M184.555 80.4377C181.392 77.8121 178.374 76.6833 175.587 77.0761C173.174 77.4173 171.055 78.8776 169.288 81.4176C169.268 81.4388 169.249 81.4599 169.229 81.4811C166.614 80.1094 163.556 79.3044 160.275 79.3044C157.222 79.3044 154.357 79.9959 151.865 81.1967C150.131 78.7982 148.071 77.4069 145.732 77.0762C142.946 76.6835 139.927 77.8124 136.764 80.4378C136.002 81.0703 135.895 82.2022 136.525 82.9665C137.154 83.7314 138.282 83.8373 139.044 83.2071C140.664 81.8626 143.062 80.3282 145.234 80.6339C146.51 80.8147 147.71 81.6417 148.808 83.0831C145.258 85.8063 143.006 89.7557 143.006 94.1586C143.006 96.3967 143.602 98.6 144.74 100.614C149.523 97.8909 154.792 96.461 160.081 96.461C165.489 96.461 170.86 97.9493 175.718 100.781C176.916 98.7265 177.542 96.4657 177.542 94.1588C177.542 89.9595 175.497 86.1704 172.23 83.4655C173.402 81.785 174.698 80.8295 176.084 80.6335C178.257 80.3278 180.653 81.8622 182.273 83.2067C183.036 83.8377 184.164 83.731 184.792 82.9661C185.423 82.2027 185.317 81.0692 184.555 80.4382L184.555 80.4377Z" fill="#454545"/>
<path d="M182.2 145.907C182.2 148.56 180.06 150.711 177.421 150.711C174.781 150.711 172.641 148.56 172.641 145.907C172.641 143.254 174.781 141.103 177.421 141.103C180.06 141.103 182.2 143.254 182.2 145.907Z" fill="#454545"/>
<path d="M149.622 121.706C149.622 123.387 148.267 124.749 146.596 124.749C144.924 124.749 143.569 123.387 143.569 121.706C143.569 120.024 144.924 118.662 146.596 118.662C148.267 118.662 149.622 120.024 149.622 121.706Z" fill="#454545"/>
<path d="M208.486 148.293C206.461 142.896 201.234 139.269 195.479 139.269H192.857C192.609 132.113 190.884 125.432 188.058 119.678C195.711 119.234 201.836 112.875 201.879 105.1C201.884 104.107 201.087 103.299 200.099 103.294H200.09C199.106 103.294 198.306 104.091 198.301 105.08C198.268 111.173 193.293 116.13 187.209 116.13H186.106C180.443 106.919 171.73 100.78 161.871 100.115V144.956C161.871 157.335 169.499 168.336 180.947 172.696C183.72 169.834 186.108 166.41 188.008 162.571H188.26C194.99 162.571 200.493 168.055 200.526 174.796C200.531 175.785 201.33 176.583 202.315 176.583H202.323C203.311 176.578 204.108 175.771 204.103 174.778C204.063 166.508 197.653 159.714 189.565 159.045C191.494 154.121 192.652 148.644 192.853 142.862H195.481C199.755 142.862 203.636 145.554 205.139 149.56C205.41 150.279 206.091 150.723 206.813 150.723C208.047 150.723 208.918 149.444 208.487 148.293L208.486 148.293ZM166.962 121.705C166.962 118.045 169.925 115.068 173.567 115.068C177.21 115.068 180.173 118.045 180.173 121.705C180.173 125.364 177.209 128.341 173.567 128.341C169.925 128.34 166.962 125.364 166.962 121.705V121.705ZM177.421 154.301C172.812 154.301 169.064 150.535 169.064 145.905C169.064 141.275 172.813 137.509 177.421 137.509C182.029 137.509 185.777 141.275 185.777 145.905C185.777 150.535 182.028 154.301 177.421 154.301Z" fill="#454545"/>
<path d="M147.523 145.907C147.523 148.56 145.383 150.711 142.743 150.711C140.103 150.711 137.964 148.56 137.964 145.907C137.964 143.254 140.103 141.103 142.743 141.103C145.383 141.103 147.523 143.254 147.523 145.907Z" fill="#454545"/>
<path d="M160.082 155.74C157.13 164.404 150.698 171.591 142.152 175.387C147.311 179.612 153.469 182.078 160.082 182.078C166.696 182.078 172.854 179.612 178.012 175.387C169.467 171.591 163.034 164.404 160.082 155.74V155.74Z" fill="#454545"/>
<path d="M133.999 116.227L131.06 116.208C124.971 116.171 119.992 111.179 119.962 105.081C119.957 104.092 119.158 103.294 118.173 103.294H118.165C117.177 103.299 116.38 104.106 116.385 105.099C116.424 113.156 122.998 119.752 131.039 119.801L132.042 119.807C129.254 125.53 127.552 132.166 127.307 139.269H124.647C118.932 139.269 113.884 142.923 112.089 148.361C111.713 149.5 112.578 150.722 113.787 150.722C114.536 150.722 115.236 150.244 115.485 149.491C116.793 145.525 120.476 142.861 124.646 142.861H127.311C127.511 148.617 128.657 154.069 130.572 158.975C130.507 158.975 130.44 158.976 130.379 158.976C121.685 158.976 114.58 166.064 114.539 174.776C114.534 175.769 115.331 176.576 116.319 176.581H116.328C117.312 176.581 118.112 175.783 118.116 174.793C118.147 168.053 123.648 162.569 130.377 162.569C130.894 162.569 131.54 162.61 132.15 162.558C134.05 166.402 136.441 169.829 139.216 172.695C150.664 168.333 158.291 157.334 158.291 144.954L158.293 100.115C148.398 100.784 139.66 106.963 133.999 116.228L133.999 116.227ZM142.743 154.301C138.134 154.301 134.385 150.535 134.385 145.905C134.385 141.275 138.134 137.509 142.743 137.509C147.352 137.509 151.1 141.275 151.1 145.905C151.1 150.535 147.351 154.301 142.743 154.301ZM146.597 128.34C142.954 128.34 139.992 125.363 139.992 121.704C139.992 118.045 142.954 115.068 146.597 115.068C150.239 115.068 153.201 118.045 153.201 121.704C153.201 125.364 150.238 128.34 146.597 128.34Z" fill="#454545"/>
<path d="M176.596 121.706C176.596 123.387 175.24 124.749 173.568 124.749C171.896 124.749 170.54 123.387 170.54 121.706C170.54 120.024 171.896 118.662 173.568 118.662C175.24 118.662 176.596 120.024 176.596 121.706Z" fill="#454545"/>
</svg>
