<svg width="300" height="300" viewBox="0 0 300 300" fill="none" xmlns="http://www.w3.org/2000/svg">
<path d="M102.72 100.686C102.72 98.1166 103.738 95.6525 105.552 93.8324C107.366 92.0123 109.827 90.9857 112.397 90.9762L142.58 90.9762L142.58 116.864L151.068 116.864L151.068 90.9762L181.625 90.9762C184.2 90.9762 186.671 91.9993 188.492 93.8206C190.312 95.6418 191.335 98.1107 191.335 100.686L191.335 107.952L199.823 107.952L199.823 99.1077C199.81 94.6897 198.043 90.4575 194.911 87.3408C191.779 84.2242 187.537 82.4786 183.119 82.488L151.019 82.488L151.019 74L142.531 74L142.53 82.488L110.939 82.488C106.503 82.4786 102.246 84.2382 99.1114 87.3763C95.9757 90.5153 94.2208 94.7736 94.2338 99.2096L94.2338 108.376L102.722 108.376L102.72 100.686Z" fill="#454545"/>
<path d="M185.63 153.789C186.216 153.423 186.892 153.229 187.583 153.229C189.645 153.229 191.317 154.901 191.317 156.963L191.317 166.724C191.317 167.065 191.588 167.344 191.928 167.353C192.272 167.344 192.548 167.068 192.557 166.724L192.557 165.146C192.487 164.132 192.841 163.135 193.535 162.394C194.229 161.651 195.199 161.23 196.215 161.23C197.231 161.23 198.201 161.651 198.895 162.394C199.587 163.135 199.943 164.132 199.873 165.146L199.873 172.31L201.962 172.31C203.493 172.301 204.728 171.057 204.728 169.526L204.728 118.989L185.63 118.989L185.63 153.789Z" fill="#454545"/>
<path d="M173.713 116.442L216.766 116.442C216.465 114.782 215.59 113.28 214.291 112.203C212.993 111.125 211.357 110.54 209.67 110.551L180.81 110.551C179.123 110.54 177.486 111.125 176.189 112.203C174.891 113.28 174.014 114.782 173.715 116.442L173.713 116.442Z" fill="#454545"/>
<path d="M196.277 190.661C196.027 190.996 195.634 191.193 195.216 191.193C194.798 191.193 194.404 190.996 194.155 190.661C193.442 189.592 187.365 179.983 189.876 175.179C181.83 180.612 195.207 200.949 195.207 200.949C195.207 200.949 208.602 180.578 200.555 175.179C203.135 179.984 196.99 189.592 196.277 190.661L196.277 190.661Z" fill="#454545"/>
<path d="M192.117 176.382C190.895 178.622 193.085 183.817 195.207 187.536C197.345 183.817 199.518 178.624 198.313 176.382C197.93 175.721 197.242 175.295 196.48 175.245L196.48 172.308L197.329 172.308L197.329 165.144C197.319 164.53 196.823 164.033 196.209 164.024C195.596 164.033 195.105 164.532 195.105 165.144L195.105 166.723C195.169 167.603 194.865 168.469 194.264 169.116C193.664 169.762 192.821 170.13 191.938 170.13C191.056 170.13 190.214 169.762 189.614 169.116C189.012 168.469 188.708 167.603 188.773 166.723L188.773 156.962C188.773 156.306 188.24 155.774 187.584 155.774C186.928 155.774 186.397 156.306 186.397 156.962L186.397 171.425C186.916 171.989 187.649 172.308 188.417 172.308L193.934 172.308L193.934 175.245C193.176 175.297 192.495 175.724 192.117 176.382L192.117 176.382Z" fill="#454545"/>
<path d="M137.248 162.65C137.833 162.285 138.509 162.09 139.2 162.09C141.256 162.089 142.925 163.752 142.934 165.807L142.934 175.586C142.934 175.926 143.206 176.205 143.545 176.214C143.889 176.206 144.165 175.929 144.174 175.586L144.174 174.007C144.105 172.994 144.46 171.997 145.152 171.255C145.846 170.512 146.816 170.091 147.832 170.091C148.848 170.091 149.819 170.512 150.512 171.255C151.206 171.997 151.56 172.994 151.491 174.007L151.491 181.154L153.646 181.154C155.175 181.154 156.414 179.916 156.414 178.387L156.414 127.849L137.248 127.849L137.248 162.65Z" fill="#454545"/>
<path d="M125.332 125.304L168.384 125.304C168.086 123.653 167.218 122.159 165.93 121.081C164.642 120.004 163.018 119.415 161.34 119.414L132.377 119.414C130.699 119.415 129.075 120.004 127.787 121.081C126.499 122.158 125.631 123.653 125.333 125.304L125.332 125.304Z" fill="#454545"/>
<path d="M147.892 199.522C147.642 199.858 147.249 200.055 146.831 200.055C146.414 200.055 146.021 199.857 145.77 199.522C145.057 198.435 138.98 188.845 141.491 184.041C133.446 189.439 146.857 209.811 146.857 209.811C146.857 209.811 160.251 189.439 152.205 184.041C154.75 188.845 148.555 198.437 147.892 199.522V199.522Z" fill="#454545"/>
<path d="M143.736 185.228C142.514 187.486 144.703 192.681 146.825 196.381C148.964 192.681 151.137 187.486 149.931 185.228L149.932 185.228C149.538 184.578 148.857 184.155 148.099 184.091L148.099 181.154L148.948 181.154L148.948 174.008L148.947 174.007C148.947 173.388 148.446 172.886 147.827 172.886C147.532 172.886 147.248 173.005 147.04 173.216C146.833 173.426 146.718 173.712 146.723 174.007L146.723 175.586C146.788 176.466 146.484 177.333 145.882 177.979C145.282 178.625 144.44 178.992 143.558 178.992C142.676 178.992 141.833 178.625 141.232 177.979C140.632 177.333 140.327 176.466 140.391 175.586L140.391 165.807C140.391 165.151 139.86 164.62 139.202 164.62C138.546 164.62 138.015 165.151 138.015 165.807L138.015 180.289C138.55 180.849 139.294 181.163 140.069 181.154L145.552 181.154L145.552 184.091C144.8 184.157 144.124 184.58 143.735 185.228L143.736 185.228Z" fill="#454545"/>
<path d="M88.8656 154.162C89.4517 153.796 90.1279 153.602 90.8183 153.602C92.874 153.6 94.5436 155.263 94.553 157.319L94.553 167.098C94.553 167.437 94.8242 167.716 95.164 167.725C95.5074 167.717 95.7834 167.44 95.7916 167.098L95.7917 165.518C95.723 164.506 96.077 163.508 96.771 162.766C97.4637 162.023 98.4347 161.602 99.4507 161.602C100.467 161.602 101.437 162.023 102.13 162.766C102.823 163.508 103.177 164.506 103.109 165.518L103.109 172.666L105.196 172.666C106.725 172.666 107.964 171.427 107.964 169.898L107.964 119.361L88.8655 119.361L88.8656 154.162Z" fill="#454545"/>
<path d="M112.905 110.924L84.046 110.924C82.3668 110.925 80.7423 111.515 79.4548 112.591C78.1676 113.669 77.2984 115.163 77 116.814L120.001 116.814C119.702 115.154 118.825 113.653 117.528 112.576C116.23 111.499 114.593 110.913 112.906 110.924L112.905 110.924Z" fill="#454545"/>
<path d="M99.5123 191.034C99.2624 191.369 98.8693 191.566 98.4513 191.566C98.0333 191.566 97.6401 191.369 97.3903 191.034C96.6774 189.947 90.6004 180.356 93.112 175.552C85.0656 180.951 98.4431 201.322 98.4431 201.322C98.4431 201.322 111.837 180.951 103.791 175.552C106.371 180.356 100.225 189.948 99.5126 191.034L99.5123 191.034Z" fill="#454545"/>
<path d="M95.3531 176.74C94.1311 178.998 96.3206 184.193 98.4425 187.894C100.581 184.193 102.754 178.998 101.549 176.74C101.155 176.09 100.473 175.667 99.7155 175.603L99.7155 172.666L100.565 172.666L100.565 165.519C100.565 164.901 100.062 164.399 99.4443 164.399C99.1483 164.399 98.8652 164.517 98.658 164.728C98.4496 164.939 98.3359 165.224 98.3406 165.519L98.3406 167.098C98.4046 167.978 98.1002 168.845 97.4999 169.492C96.8995 170.137 96.0564 170.504 95.1742 170.504C94.292 170.504 93.45 170.137 92.8485 169.492C92.2481 168.845 91.9438 167.978 92.0077 167.098L92.0077 157.32C92.0077 156.664 91.476 156.132 90.82 156.132C90.164 156.132 89.6311 156.664 89.6311 157.32L89.6311 171.801C90.1592 172.353 90.8887 172.665 91.6513 172.667L97.1694 172.667L97.1694 175.603C96.4163 175.67 95.7414 176.092 95.3529 176.74L95.3531 176.74Z" fill="#454545"/>
</svg>
