<svg width="300" height="300" viewBox="0 0 300 300" fill="none" xmlns="http://www.w3.org/2000/svg">
<path d="M209.688 95.0014C209.688 95.0014 132.723 121.189 114.455 131.299L128.659 155.689C134.178 150.187 141.774 146.781 150.155 146.781C160.444 146.781 169.556 151.946 175.083 159.785C197.067 141.269 221.842 118.96 221.842 118.96C217.284 109.96 212.726 100.999 209.687 95L209.688 95.0014ZM91.0543 114.866C83.3146 128.789 78.8192 140.367 78.566 149.688C78.4395 154.349 79.4805 158.572 81.9982 161.835C84.2354 164.735 87.5146 166.704 91.5783 167.742C91.0541 165.505 90.7649 163.266 90.7203 161.025C88.9914 160.275 87.7345 159.315 86.8117 158.119C85.3465 156.22 84.5671 153.578 84.6671 149.879C84.867 142.479 88.8799 131.335 96.3919 117.822C97.1489 115.641 96.4748 114.396 94.848 113.444C93.1956 112.834 91.9792 113.772 91.054 114.868L91.0543 114.866ZM109.262 134.492C93.6955 145.05 90.1166 160.283 97.2513 174.457C102.906 183.82 111.454 189.298 122.227 189.462C120.601 185.738 119.653 181.629 119.653 177.315C119.653 171.25 121.491 165.595 124.562 160.833L109.262 134.492ZM150.158 149.878C134.995 149.878 122.703 162.162 122.703 177.316C122.703 192.47 134.995 204.753 150.158 204.753C165.32 204.753 177.612 192.469 177.612 177.316C177.612 162.162 165.32 149.878 150.158 149.878ZM150.158 165.121C156.861 165.121 162.36 170.617 162.36 177.316C162.36 184.014 156.861 189.511 150.158 189.511C143.455 189.511 137.955 184.015 137.955 177.316C137.955 170.617 143.455 165.121 150.158 165.121ZM150.158 171.218C146.752 171.218 144.057 173.911 144.057 177.314C144.057 180.718 146.752 183.411 150.158 183.411C153.563 183.411 156.259 180.718 156.259 177.314C156.259 173.911 153.563 171.218 150.158 171.218Z" fill="#454545"/>
</svg>
