<svg width="300" height="300" viewBox="0 0 300 300" fill="none" xmlns="http://www.w3.org/2000/svg">
<path fill-rule="evenodd" clip-rule="evenodd" d="M180.155 69.5975H181.277C183.509 71.7333 182.33 77.2808 183.15 80.8271C189.409 82.305 191.692 87.7587 197 90.1861V92.807C195.586 97.6312 190.751 99.0374 188.015 102.54C188.886 112.187 191.61 120.486 188.015 128.368C185.925 132.951 181.335 136.392 180.527 142.594C179.501 150.497 180.95 158.745 180.901 168.798C182.122 170.324 185.369 169.819 186.892 171.045C186.514 174.443 184.351 174.202 184.647 177.782C175.493 182.047 171.375 172.958 169.297 166.552C167.583 168.332 166.742 170.982 165.18 172.915C169.723 172.854 174.27 173.973 172.668 178.906C161.382 181.7 148.114 179.918 134.486 179.28C132.629 182.096 133.455 185.986 135.233 188.263C142.331 197.354 162.742 192.888 172.293 193.505C169.105 198.177 161.273 198.207 155.448 200.242H146.089C136.884 198.093 129.324 194.299 127 185.269V179.653C128.033 176.148 130.704 171.79 130.742 167.673C130.85 156.57 126.899 145.673 129.994 135.106C132.248 127.411 138.519 116.421 144.967 112.645C147.619 111.091 150.993 110.711 153.577 109.275C157.273 107.223 162.074 102.889 162.937 99.5421C163.573 97.0648 162.926 94.7495 163.31 92.8051C164.648 86.0135 168.272 82.0747 174.165 79.3288C175.617 75.5389 177.457 72.1382 180.155 69.5967L180.155 69.5975Z" fill="#454545"/>
</svg>
