<svg width="300" height="300" viewBox="0 0 300 300" fill="none" xmlns="http://www.w3.org/2000/svg">
<path d="M148.863 93.9477C149.706 97.8903 154.786 101.542 161.416 102.595C162.66 102.794 163.879 102.886 165.053 102.886C171.178 102.886 176.104 100.32 176.718 96.4292C177.451 91.7983 171.796 87.053 164.073 85.8236C162.833 85.6245 161.618 85.5327 160.444 85.5327C158.29 85.5327 156.302 85.8675 154.579 86.446C154.009 88.7026 152.676 90.8933 150.519 92.7442C150.014 93.1822 149.437 93.5617 148.863 93.9476L148.863 93.9477Z" fill="#454545"/>
<path d="M134.824 94.4013C136.068 94.4013 137.36 94.2949 138.678 94.0698C146.386 92.7664 151.996 87.9626 151.208 83.3389C150.561 79.5035 145.72 77 139.69 77C138.446 77 137.157 77.1032 135.843 77.3275C128.139 78.6308 122.525 83.438 123.309 88.0616C123.953 91.8937 128.794 94.4014 134.823 94.4014L134.824 94.4013Z" fill="#454545"/>
<path d="M197.425 152.997C197.425 143.544 192.801 135.928 185.399 130.38C188.126 129.301 190.063 126.654 190.063 123.547C190.063 119.484 186.765 116.185 182.7 116.185H116.438C112.374 116.185 109.075 119.483 109.075 123.547C109.075 126.256 110.555 128.598 112.734 129.879C106.035 135.088 102 142.332 102 151.598C102 163.956 109.197 174.911 120.321 181.89L116.04 187.599C114.821 189.222 115.149 191.53 116.776 192.749C117.438 193.246 118.215 193.485 118.981 193.485C120.1 193.485 121.204 192.977 121.93 192.013L126.907 185.376C133.419 188.196 140.829 189.804 148.703 189.804C156.515 189.804 164.054 188.347 170.782 185.748L175.476 192.01C176.197 192.978 177.302 193.482 178.425 193.482C179.194 193.482 179.967 193.243 180.63 192.746C182.257 191.527 182.588 189.219 181.366 187.596L177.585 182.553C189.413 175.982 197.423 165.443 197.423 152.996L197.425 152.997Z" fill="#454545"/>
<path d="M118.8 108.823H134.677C132.983 106.813 131.662 104.645 130.871 102.44C130.267 100.754 130.06 99.1271 130.086 97.5734C127.664 97.0648 125.562 96.1783 123.88 94.9707C118.549 96.1896 114.747 99.2627 114.747 102.885C114.747 105.197 116.296 107.291 118.8 108.823L118.8 108.823Z" fill="#454545"/>
<path d="M145.624 95.7882C143.68 96.6641 141.542 97.3199 139.296 97.7026C137.802 97.9496 136.296 98.082 134.823 98.082C134.448 98.082 134.102 98.0341 133.734 98.0154C133.844 101.391 136.024 105.477 139.789 108.823H154.727C154.816 108.61 154.856 108.407 154.959 108.194C155.452 107.181 156.096 106.195 156.807 105.227C154.038 104.332 151.528 103.04 149.558 101.391C147.594 99.7421 146.305 97.8017 145.624 95.7881L145.624 95.7882Z" fill="#454545"/>
<path d="M160.838 106.229C160.798 106.221 160.764 106.21 160.728 106.203C159.98 107.053 159.359 107.937 158.835 108.82H181.626C182.889 106.166 183.043 103.563 181.773 101.623C181.213 100.765 180.4 100.125 179.432 99.668C177.301 103.872 171.929 106.567 165.053 106.567C163.666 106.568 162.249 106.457 160.839 106.229L160.838 106.229Z" fill="#454545"/>
</svg>
