<svg width="300" height="300" viewBox="0 0 300 300" fill="none" xmlns="http://www.w3.org/2000/svg">
<path d="M97.9378 106.797C97.9571 108.566 98.5088 110.33 99.5911 111.829L99.5702 111.982L99.7379 112.025C99.9678 112.326 100.222 112.617 100.496 112.893C102.562 114.964 105.404 115.78 108.082 115.343L120.317 129.122C121.662 127.275 123.009 125.611 124.27 124.346C125.53 123.082 127.188 121.731 129.03 120.383L115.29 108.114C115.727 105.427 114.915 102.575 112.849 100.504C112.575 100.228 112.285 99.976 111.985 99.7446L111.942 99.5776L111.788 99.5954C108.374 97.1152 103.573 97.4177 100.496 100.504C98.7661 102.239 97.9128 104.522 97.9378 106.797L97.9378 106.797ZM103.938 103.127C103.938 102.277 104.26 101.428 104.907 100.779C106.201 99.4818 108.299 99.4818 109.593 100.779C110.886 102.076 110.886 104.181 109.593 105.478C108.299 106.776 106.2 106.776 104.907 105.478C104.26 104.83 103.938 103.978 103.938 103.127V103.127ZM110.884 147.168L110.988 147.274L116.458 152.759L118.057 154.363C124.384 138.222 138.762 124.309 154.198 118.115L147.023 110.919C147.023 110.919 131.619 119.009 125.371 125.16C125.322 125.209 125.275 125.259 125.226 125.307C119.077 131.476 110.884 147.168 110.884 147.168L110.884 147.168ZM126.821 141.629L162.578 179.593L202 201.999L179.66 162.464L141.879 126.67C138.922 128.823 136.102 131.24 133.483 133.872C131.077 136.289 128.841 138.889 126.823 141.629L126.821 141.629ZM137.068 137.31C137.083 137.192 137.128 137.09 137.205 137.012C137.514 136.702 138.218 136.908 138.784 137.475L175.699 174.502C176.264 175.069 176.472 175.774 176.162 176.085C175.853 176.395 175.147 176.189 174.581 175.622L137.666 138.597C137.242 138.172 137.021 137.667 137.068 137.31L137.068 137.31Z" fill="#454545"/>
</svg>
