<svg width="300" height="300" viewBox="0 0 300 300" fill="none" xmlns="http://www.w3.org/2000/svg">
<path fill-rule="evenodd" clip-rule="evenodd" d="M214.897 88.8364C214.596 90.8053 214.024 92.5311 213.18 94.0121C212.337 95.4911 211.462 96.2278 210.559 96.2278C210.017 96.2278 208.359 94.1374 205.586 89.9455C204.262 87.9766 203.146 86.9913 202.243 86.9913C199.35 86.9913 197.121 88.9602 195.554 92.9034C194.71 95.2425 193.986 98.3828 193.385 102.324C193.021 104.542 192.539 108.299 191.939 113.596C191.155 121.234 190.581 126.159 190.221 128.376C189.497 133.425 188.563 137.492 187.417 140.569C185.368 146.356 183.351 151.286 181.361 155.35C179.373 159.416 177.173 162.988 174.764 166.067C172.776 168.41 170.666 170.439 168.436 172.167C166.207 173.891 163.735 175.186 161.023 176.046V180.266L162.275 191.635C162.346 192.49 162.381 193.655 162.381 195.12V198.42C162.381 199.888 161.929 200.619 161.023 200.619H159.125H157.273H155.238C154.514 200.619 154.154 199.833 154.154 198.258C154.154 196.807 154.094 193.935 153.972 189.642C153.852 185.347 153.791 182.96 153.791 182.474V178.816C152.533 179.43 151.352 179.862 150.245 180.107C149.139 180.352 148.166 180.478 147.328 180.478H144.366H140.955V184.607C141.316 187.839 141.679 191.013 142.04 194.126V197.713C142.04 198.55 141.981 199.419 141.862 200.32C141.743 201.222 141.354 201.552 140.699 201.305C140.401 201.148 139.863 200.999 139.088 200.843C138.311 200.686 137.417 200.611 136.403 200.611H134.345C133.569 200.611 133.183 200.006 133.183 198.795L133.543 197.345V195.8V193.893V188.996V184.821V180.288C132.7 180.89 131.645 181.859 130.379 183.192C129.475 184.159 128.421 185.307 127.216 186.638C123.42 191.116 120.377 191.433 118.086 193.25C114.29 196.276 110.343 197.787 106.246 197.787C103.534 197.787 100.596 197.61 97.4326 196.247C94.2687 194.89 90.729 195.066 86.811 192.114C86.2712 191.76 86 191.055 86 189.99C86 188.576 86.4524 187.865 87.3553 187.865C96.6359 187.865 103.399 187.001 107.648 185.272C111.896 183.544 115.015 180.516 117.003 176.193C120.077 164.459 123.015 154.854 125.816 147.382C128.618 139.907 132.58 133.206 137.703 127.279C138.608 126.165 139.586 125.362 140.64 124.872C141.695 124.374 142.794 124.129 143.94 124.129C146.109 124.129 149.543 126.594 154.243 131.521C158.944 136.447 162.499 138.912 164.909 138.912H166.807C167.832 138.912 168.646 138.82 169.249 138.637C169.852 138.453 170.514 137.991 171.237 137.254C173.528 135.16 175.518 132.51 177.204 129.308C178.589 126.597 180.006 123.087 181.452 118.775C182.296 116.066 183.561 111.323 185.248 104.549C186.693 98.5151 187.929 93.8317 188.953 90.5071C190.4 85.5804 192.057 81.823 193.926 79.2373C196.095 76.1559 198.565 74.6162 201.338 74.6162C203.568 74.6162 205.918 75.4155 208.388 77.0161C210.859 78.6166 212.666 80.591 213.811 82.9282C214.836 84.5269 215.199 86.4976 214.897 88.8366L214.897 88.8364Z" fill="#454545"/>
<path d="M212.429 85.412C212.429 87.0733 211.209 87.0733 211.209 85.412C211.209 83.7507 212.429 83.7507 212.429 85.412Z" fill="#454545"/>
</svg>
