<svg width="300" height="300" viewBox="0 0 300 300" fill="none" xmlns="http://www.w3.org/2000/svg">
<path d="M184.734 175.355C184.745 175.558 184.75 175.763 184.75 175.969C184.75 181.695 180.53 186.337 175.324 186.337C171.594 186.337 168.369 183.953 166.841 180.494C165.314 183.953 162.089 186.337 158.358 186.337C154.627 186.337 151.402 183.953 149.875 180.494C148.348 183.953 145.123 186.337 141.392 186.337C137.661 186.337 134.436 183.953 132.909 180.494C131.381 183.953 128.156 186.337 124.426 186.337C119.22 186.337 115 181.695 115 175.969C115 175.768 115.005 175.568 115.015 175.369C115.005 175.255 115 175.141 115 175.025V111.874C115 92.6137 130.614 77 149.874 77C169.134 77 184.748 92.6139 184.748 111.874V175.025C184.748 175.136 184.743 175.246 184.734 175.355L184.734 175.355ZM175.324 113.759C175.324 112.656 174.989 111.579 174.365 110.669C172.658 108.187 169.262 107.558 166.781 109.265L157.59 115.584C156.319 116.457 155.559 117.901 155.559 119.443C155.559 122.03 157.656 124.127 160.243 124.127H164.956C170.682 124.127 175.324 119.485 175.324 113.759L175.324 113.759ZM124.426 113.759C124.426 119.485 129.068 124.128 134.794 124.128H139.507C142.094 124.128 144.191 122.03 144.191 119.443C144.191 117.901 143.431 116.458 142.16 115.584L132.969 109.265C130.487 107.559 127.092 108.187 125.385 110.669C124.761 111.579 124.426 112.656 124.426 113.759L124.426 113.759ZM149.874 148.635C160.806 148.635 171.191 139.596 169.668 137.325C167.236 134.875 163.359 141.095 149.874 141.095C137.19 141.095 133.104 135.841 130.08 137.325C127.192 138.659 138.942 148.635 149.874 148.635Z" fill="#454545"/>
</svg>
