<svg width="300" height="300" viewBox="0 0 300 300" fill="none" xmlns="http://www.w3.org/2000/svg">
<path d="M134.067 153.859C135.136 153.152 136.389 152.773 137.671 152.771H163.333C164.614 152.773 165.868 153.152 166.936 153.859C193.424 145.865 196.123 117.163 196.359 109.208H104.632C104.881 117.137 107.581 145.865 134.069 153.859H134.067ZM167.906 129.494L173.778 119.743C173.972 119.469 174.287 119.305 174.623 119.305C174.959 119.305 175.275 119.469 175.468 119.743L181.353 129.494C181.536 129.806 181.536 130.192 181.353 130.503L175.468 140.267C175.287 140.559 174.967 140.737 174.623 140.737C174.279 140.737 173.96 140.559 173.778 140.267L167.906 130.503C167.723 130.192 167.723 129.806 167.906 129.494ZM140.461 129.494L149.635 114.239H149.636C149.827 113.965 150.141 113.801 150.474 113.801C150.809 113.801 151.122 113.965 151.313 114.239L160.487 129.494C160.67 129.81 160.67 130.2 160.487 130.516L151.313 145.771C151.135 146.064 150.817 146.242 150.474 146.242C150.132 146.242 149.814 146.064 149.636 145.771L140.462 130.516C140.258 130.187 140.258 129.771 140.462 129.442L140.461 129.494ZM119.648 129.494L125.6 119.743C125.794 119.469 126.109 119.305 126.445 119.305C126.781 119.305 127.097 119.469 127.29 119.743L133.162 129.494H133.161C133.345 129.806 133.345 130.192 133.161 130.503L127.289 140.267H127.29C127.108 140.559 126.788 140.737 126.445 140.737C126.101 140.737 125.782 140.559 125.6 140.267L119.715 130.503C119.511 130.203 119.486 129.818 119.649 129.494H119.648Z" fill="#454545"/>
<path d="M142.401 165.771C142.231 170.87 141.353 184.119 137.002 189.966H164C159.649 184.133 158.758 170.87 158.601 165.771H142.401Z" fill="#454545"/>
<path d="M127.028 196.466C127.028 197.669 127.506 198.821 128.356 199.672C129.206 200.523 130.36 201 131.562 201H169.438C171.058 201 172.554 200.136 173.364 198.733C174.174 197.329 174.174 195.602 173.364 194.198C172.554 192.795 171.058 191.931 169.438 191.931H131.562C130.36 191.931 129.206 192.408 128.356 193.259C127.506 194.11 127.028 195.262 127.028 196.466V196.466Z" fill="#454545"/>
<path d="M198.389 98.1709H102.611C100.991 98.1709 99.4945 99.0348 98.6845 100.438C97.8736 101.841 97.8736 103.57 98.6845 104.972C99.4945 106.376 100.991 107.241 102.611 107.241H198.389C200.009 107.241 201.506 106.376 202.315 104.972C203.126 103.57 203.126 101.841 202.315 100.438C201.506 99.0348 200.009 98.1709 198.389 98.1709Z" fill="#454545"/>
<path d="M158.547 129.953L150.5 116.597L142.454 129.953L150.5 143.307L158.547 129.953Z" fill="#454545"/>
<path d="M131.104 130.004L126.372 122.154L121.641 130.004L126.372 137.854L131.104 130.004Z" fill="#454545"/>
<path d="M179.36 130.004L174.629 122.154L169.897 130.004L174.629 137.854L179.36 130.004Z" fill="#454545"/>
<path d="M163.331 154.737H137.669C136.049 154.737 134.552 155.602 133.742 157.004C132.932 158.407 132.932 160.136 133.742 161.539C134.552 162.942 136.049 163.807 137.669 163.807H163.331C164.951 163.807 166.448 162.942 167.258 161.539C168.068 160.136 168.068 158.407 167.258 157.004C166.448 155.602 164.951 154.737 163.331 154.737V154.737Z" fill="#454545"/>
</svg>
