<svg width="300" height="300" viewBox="0 0 300 300" fill="none" xmlns="http://www.w3.org/2000/svg">
<path d="M201.742 187.168L150.539 135.965C156.804 124.882 155.238 110.665 145.841 101.268C134.516 89.9432 116.204 89.9432 104.879 101.268C93.5538 112.593 93.5538 130.905 104.879 142.23C114.276 151.627 128.492 153.194 139.576 146.929L165.237 172.59L157.045 180.782C155.84 181.987 155.84 184.035 157.045 185.24L162.828 191.022C164.033 192.227 166.081 192.227 167.285 191.022L175.477 182.83L180.537 187.89L172.345 196.082C171.14 197.287 171.14 199.335 172.345 200.54L178.128 206.322C179.333 207.527 181.381 207.527 182.586 206.322L190.778 198.13C193.789 201.142 198.729 201.142 201.741 198.13C204.753 195.12 204.753 190.18 201.741 187.168L201.742 187.168ZM124.637 121.147C121.505 124.279 116.324 124.279 113.192 121.147C110.06 118.015 110.06 112.834 113.192 109.702C116.324 106.57 121.505 106.57 124.637 109.702C127.889 112.834 127.889 117.894 124.637 121.147Z" fill="#454545"/>
</svg>
