<svg width="300" height="300" viewBox="0 0 300 300" fill="none" xmlns="http://www.w3.org/2000/svg">
<path d="M159.101 196.326C152.727 196.326 146.95 193.138 142.356 188.711C138.433 184.93 135.455 180.257 133.766 176.278C135.634 176.573 137.615 176.563 139.349 176.561C154.443 176.221 165.222 168.485 171.428 158.398C174.911 152.739 176.998 146.349 177.738 140.037C184.269 132.141 193.023 130.189 199.287 132.134C202.439 133.112 204.922 135.051 206.325 137.725C207.432 139.835 207.611 142.605 207.053 145.725C206.105 144.855 205.24 143.908 204.092 143.267C202.119 142.167 199.663 141.735 197.006 142.593C193.178 144.415 192.107 147.917 191.668 151.46C191.167 155.582 191.266 160.533 190.891 165.436C190.516 170.339 189.625 175.148 187.445 178.738C185.266 182.327 181.932 184.856 175.797 185.581C175.164 185.641 174.595 186.126 174.438 186.738C171.759 193.314 164.353 196.205 159.102 196.329L159.101 196.326ZM139.153 173.482C134.258 173.631 128.637 172.241 124.691 170.302L127.797 164.084C147.601 163.622 161.065 149.706 164.731 136.324C164.285 136.258 163.853 136.137 163.441 135.973C162.872 135.745 162.342 135.435 161.867 135.072C158.683 147.328 145.994 161.026 126.973 161.096C121.616 159.655 117.232 153.861 115.859 149.771C115.592 149.002 114.644 148.541 113.869 148.806C113.094 149.071 112.631 150.013 112.898 150.782C114.458 155.428 118.618 161.184 124.595 163.505L121.974 168.758C118.151 166.321 114.869 163.056 112.17 159.216C108.603 154.138 106.11 148.037 104.744 141.577C106.465 142.256 108.19 142.196 108.19 139.504C108.19 136.458 105.988 136.79 104.064 137.818C103.775 135.722 103.625 133.583 103.579 131.457C121.224 127.664 141.294 128.525 159.492 130.927C159.408 130.482 159.471 130.059 159.468 129.643C159.521 129.046 159.659 128.482 159.881 127.94C141.037 125.431 120.151 124.458 101.591 128.711L96.6403 128.711C100.99 120.765 104.92 109.875 108.483 100.325C109.197 98.4103 109.889 96.664 110.57 94.9274C129.209 98.037 142.993 104.025 151.873 110.638C158.115 115.287 161.772 120.177 163.23 124.517C163.697 124.32 164.199 124.179 164.721 124.103C165.348 123.968 165.955 124.083 166.53 124.131C164.906 118.813 160.578 113.252 153.766 108.179C144.475 101.261 130.47 95.189 111.737 91.986C112.986 88.8698 114.343 86.0413 116.251 83.3596C116.938 82.5626 117.448 82.4435 117.513 82.4435C121.74 82.4435 129.909 84.296 138.383 86.9734C146.685 89.5961 155.305 92.9546 161.387 95.9368C165.963 105.027 170.467 114.024 173.472 124.465L173.472 124.513C176.423 134.038 174.927 146.789 168.764 156.803C162.993 166.18 153.327 173.234 139.159 173.478L139.153 173.482ZM120.129 141.82C127.469 141.444 139.251 137.483 139.251 136.422C139.251 134.88 114.402 133.339 114.402 139.506C114.402 141.434 116.792 141.991 120.129 141.82L120.129 141.82ZM165.653 134.88C168.226 134.88 170.312 132.809 170.312 130.253C170.312 127.698 168.226 125.627 165.653 125.627C163.079 125.627 160.993 127.698 160.993 130.253C160.993 132.809 163.079 134.88 165.653 134.88ZM128.573 119.458C129.071 119.38 129.523 119.044 129.738 118.59L134.397 109.338C134.806 108.615 134.491 107.584 133.747 107.208C133.004 106.833 131.978 107.187 131.631 107.94L126.971 117.193C126.417 118.197 127.433 119.634 128.573 119.458V119.458ZM119.254 119.458C119.801 119.369 120.284 118.966 120.467 118.446L125.127 106.109C125.567 105.342 125.17 104.229 124.342 103.909C123.514 103.588 122.463 104.14 122.264 105.001L117.604 117.338C117.185 118.337 118.175 119.608 119.254 119.458L119.254 119.458ZM109.888 119.458C110.492 119.387 111.031 118.93 111.198 118.35L115.858 102.928C116.158 102.144 115.674 101.158 114.868 100.909C114.062 100.66 113.1 101.199 112.899 102.012L108.239 117.434C107.908 118.413 108.855 119.576 109.889 119.458L109.888 119.458ZM162.205 92.9042C155.946 89.8868 147.484 86.6226 139.297 84.0363C130.687 81.316 122.597 79.3617 117.506 79.3617C115.852 79.3145 114.716 80.4676 113.817 81.5307C112.478 80.3765 111.126 79.219 110.128 78.0124L116.438 71.747C134.175 74.7109 151.027 78.5479 166.377 88.9035C164.976 90.2819 163.54 91.6099 162.203 92.9034L162.205 92.9042ZM168.563 86.6388C152.286 75.5129 134.485 71.5934 116.196 68.5665C115.708 68.4849 115.185 68.6523 114.837 68.9998L108.527 75.2652C108.313 74.6141 108.187 73.9308 108.187 73.1928C108.187 69.5037 110.708 65.3086 113.574 60.9998C125.658 62.5777 139.478 65.8954 150.75 69.6262C156.525 71.5377 161.626 73.5319 165.407 75.4091C169.095 77.2402 171.45 79.1602 171.911 79.939C172.113 80.6159 172.037 81.4032 171.571 82.4448C170.674 84.1793 169.69 85.3561 168.562 86.638L168.563 86.6388Z" fill="#454545"/>
</svg>
