<svg width="300" height="300" viewBox="0 0 300 300" fill="none" xmlns="http://www.w3.org/2000/svg">
<path d="M205.284 91.664C203.656 90.7985 191.692 87.3194 186.279 91.3421C185.38 92.004 184.43 93.056 183.31 94.2605C181.188 96.5512 178.558 99.4025 175.131 101.099C174.469 101.421 173.519 101.778 172.399 102.203C171.754 101.727 170.804 100.709 171.228 98.8599C171.262 98.7747 171.331 98.5711 171.567 98.2832C174.027 95.1781 174.927 90.8337 174.027 86.3535C173.535 83.8593 173.417 81.6358 173.417 81.6189C173.382 80.9228 172.94 80.3291 172.278 80.0914C171.633 79.8708 170.92 80.0573 170.463 80.5668C170.345 80.6851 167.545 83.8251 166.747 88.0335C166.441 89.6121 165.475 91.0032 163.998 91.9871C160.536 94.329 158.805 97.2134 158.993 100.354C159.196 103.425 160.503 105.41 161.81 106.649C153.681 110.756 143.772 117.968 136.526 131.696C134.302 131.441 129.755 131.56 124.341 135.242C123.357 135.921 122.085 136.039 120.947 135.581C119.115 134.835 117.027 134.885 115.246 135.75C113.446 136.599 112.089 138.178 111.53 140.078L109.612 146.459C109.426 147.086 109.612 147.765 110.105 148.207C110.427 148.495 110.835 148.648 111.242 148.648C111.463 148.648 111.683 148.597 111.887 148.513C112.005 148.461 123.392 143.795 131.164 143.676C129.671 147.63 128.533 151.245 127.464 154.621C124.613 163.648 122.56 170.165 115.738 175.29C112.599 177.632 106.915 180.771 97.4107 182.434C96.6295 182.57 96.0528 183.215 96.0017 184.012C95.9676 184.792 96.46 185.505 97.2232 185.726C97.5963 185.844 101.89 187.067 107.625 187.067C114.617 187.067 123.729 185.251 130.5 177.326C140.002 166.228 143.142 160.221 146.485 153.858C146.706 153.434 146.926 153.009 147.164 152.585C148.606 153.468 150.779 154.655 152.645 155.096C154.359 155.487 156.107 155.673 157.821 155.673C162.759 155.673 167.392 154.112 170.073 151.329C172.143 149.173 172.873 146.458 172.092 143.624L170.87 139.433C170.701 138.822 170.191 138.364 169.563 138.246C168.935 138.11 168.291 138.381 167.9 138.873C166.628 140.536 162.623 144.864 159.313 144.982C157.6 145.05 154.732 144.1 153.205 141.843C157.379 135.021 163.556 126.35 171.888 120.139C172.634 120.614 173.687 121.564 173.687 123.126C173.687 123.872 173.432 124.958 173.161 126.095C172.278 129.795 170.937 135.411 177.081 138.194C178.506 138.856 179.881 139.111 181.188 139.111C186.821 139.111 190.911 134.088 191.115 133.817C191.505 133.324 191.59 132.629 191.318 132.051C191.064 131.475 190.487 131.085 189.859 131.068C187.11 130.949 182.596 130.168 181.629 128.828C181.527 128.659 181.477 128.539 181.561 128.268C181.696 127.776 181.85 127.318 181.985 126.843C183.105 123.229 184.361 119.173 181.679 114.592C183.037 114.049 184.445 113.574 185.905 113.201C187.28 112.844 188.518 112.539 189.638 112.267C195.509 110.825 198.461 110.095 201.567 106.565C203.96 103.85 206.131 100.592 207.218 98.8948C207.744 98.0633 207.998 97.1297 207.998 96.1799C207.998 95.8238 207.964 95.4669 207.896 95.1279C207.592 93.6326 206.624 92.3599 205.284 91.6639L205.284 91.664ZM193.592 98.4859C193.151 98.4859 192.71 98.2994 192.388 97.9935C192.082 97.6716 191.896 97.2303 191.896 96.789C191.896 96.5684 191.947 96.3477 192.031 96.1441C192.116 95.9405 192.235 95.754 192.387 95.5845C192.557 95.432 192.743 95.3127 192.947 95.2284C193.354 95.0589 193.829 95.0589 194.236 95.2284C194.457 95.3136 194.644 95.432 194.796 95.5845C194.948 95.754 195.068 95.9405 195.152 96.1441C195.237 96.3477 195.288 96.5683 195.288 96.789C195.288 97.2303 195.101 97.6715 194.795 97.9935C194.643 98.146 194.456 98.2653 194.235 98.3496C194.034 98.4519 193.813 98.486 193.592 98.486L193.592 98.4859ZM197.275 103.238C196.953 103.56 196.529 103.747 196.088 103.747C195.629 103.747 195.205 103.561 194.883 103.238C194.561 102.916 194.391 102.492 194.391 102.05C194.391 101.813 194.425 101.609 194.509 101.388C194.594 101.185 194.713 100.998 194.882 100.846C195.035 100.693 195.221 100.557 195.425 100.473C196.053 100.218 196.8 100.37 197.274 100.846C197.444 100.998 197.563 101.185 197.647 101.388C197.732 101.609 197.783 101.813 197.783 102.05C197.784 102.491 197.597 102.932 197.275 103.238H197.275Z" fill="#454545"/>
</svg>
