<svg width="300" height="300" viewBox="0 0 300 300" fill="none" xmlns="http://www.w3.org/2000/svg">
<path d="M188.111 168.046L187.784 168.572C184.769 173.024 178.511 175.271 169.209 175.271C164.547 175.219 159.896 174.801 155.299 174.02C150.37 173.167 145.381 172.691 140.379 172.597C133.268 172.597 131.845 174.148 131.547 174.46H131.548C131.543 174.503 131.543 174.546 131.548 174.588C132.953 176.055 133.895 177.903 134.254 179.902C134.613 181.9 134.374 183.961 133.567 185.825C132.799 187.744 134.193 192.197 135.43 194.757C136.983 195.47 138.671 195.843 140.379 195.852C140.942 195.86 141.504 195.812 142.058 195.709H185.777C185.777 195.709 200 192.253 200 181.486C199.985 173.551 192.249 169.596 188.11 168.046L188.111 168.046Z" fill="#454545"/>
<path d="M147.135 130.755L160.817 126.844C161.571 125.422 164.5 122.577 162.352 119.434C160.447 116.59 156.435 115.381 153.818 114.499V114.698L146.267 127.839C146.409 128.508 146.85 129.759 147.135 130.755L147.135 130.755Z" fill="#454545"/>
<path d="M146.736 133.102C147.015 134.361 147.191 135.641 147.263 136.928C147.377 139.588 147.377 141.963 147.476 144.04C148.982 142.815 150.79 142.02 152.71 141.735C156.314 141.132 159.867 140.248 163.335 139.09C161.912 136.445 161.5 131.496 161.116 129.021L146.736 133.102Z" fill="#454545"/>
<path d="M131.589 184.956C132.264 183.366 132.419 181.603 132.031 179.918C131.642 178.235 130.731 176.717 129.426 175.584C129.426 175.584 127.193 170.45 140.378 170.45C145.494 170.529 150.596 171.004 155.639 171.871C160.122 172.634 164.659 173.043 169.207 173.095C189.603 173.095 188.848 162.058 186.274 155.686C183.7 149.314 171.867 147.963 164.684 140.724C164.581 140.841 164.448 140.929 164.3 140.98C160.624 142.232 156.852 143.183 153.022 143.825C150.928 144.117 149.017 145.176 147.66 146.797C147.784 148.512 148.498 150.13 149.68 151.377C151.5 152.486 157.716 155.743 167.927 155.913C168.519 155.929 168.988 156.417 168.98 157.009C168.976 157.287 168.862 157.554 168.661 157.749C168.461 157.943 168.192 158.05 167.913 158.047C156.99 157.863 150.447 154.364 148.499 153.154C139.482 153.965 129.854 157.563 123.866 167.718C123.004 167.587 122.134 167.526 121.263 167.534C117.75 167.534 111.564 168.487 108.293 174.645C103.557 183.577 100.001 183.577 100.001 183.577H100C102.653 184.406 105.413 184.842 108.193 184.871C112.545 184.871 117.48 183.605 119.955 178.584C119.955 178.584 116.499 194.698 133.551 195.651C133.523 195.638 130.067 188.668 131.589 184.956L131.589 184.956Z" fill="#454545"/>
<path d="M144.191 101.512C143.552 103.799 143.077 106.127 142.769 108.481C143.491 108.658 144.231 108.748 144.974 108.751C146.983 108.729 148.948 108.164 150.662 107.115C152.64 105.949 153.08 103.19 152.81 100.089L154.687 97.7708L151.843 94.6278C151.445 93.1198 150.99 91.6832 150.577 90.4888V90.4898C149.46 94.1447 147.606 97.5325 145.13 100.445C144.66 100.886 144.291 101.355 144.191 101.512L144.191 101.512Z" fill="#454545"/>
<path d="M142.215 138.89L145.529 117.257C145.646 116.703 146.177 116.338 146.736 116.424C147.296 116.511 147.689 117.02 147.634 117.585L146.909 122.321L151.802 113.787L151.517 113.63H151.516C150.412 112.689 149.511 111.533 148.871 110.231C147.604 110.673 146.273 110.904 144.931 110.914C144.114 110.903 143.299 110.812 142.499 110.644C142.499 111.483 142.499 112.294 142.427 113.09L142.428 113.089C142.627 113.075 142.826 113.075 143.026 113.089C143.325 113.113 143.602 113.262 143.787 113.5C143.971 113.738 144.046 114.043 143.994 114.339C143.941 114.636 143.766 114.896 143.511 115.056C143.256 115.216 142.945 115.262 142.656 115.181H142.328C141.717 124.269 139.626 130.27 136.895 134.196L136.412 139.245H136.411C136.425 139.32 136.425 139.398 136.411 139.473L130.723 156.725L135.103 153.881L142.215 138.89Z" fill="#454545"/>
<path d="M142.284 100.575C143.023 99.0671 147.575 95.3269 149.083 86.9784C149.083 86.9784 146.836 82 138.8 82H137.377C128.218 82.626 123.823 90.2204 125.714 99.8637C127.606 109.507 129.896 128.309 121.447 131.054H121.448C120.777 131.273 120.077 131.383 119.371 131.382C114.35 131.382 109.757 126.148 109.757 126.148C109.757 126.148 111.578 138.72 122.956 139.133H123.582C133.538 139.133 140.422 130.457 140.422 109.649C140.378 109.649 141.53 102.068 142.284 100.575L142.284 100.575Z" fill="#454545"/>
</svg>
