<svg width="300" height="300" viewBox="0 0 300 300" fill="none" xmlns="http://www.w3.org/2000/svg">
<path fill-rule="evenodd" clip-rule="evenodd" d="M200.087 121.756C200.841 106.692 185.269 107.354 186.538 122.764L173.144 120.825C139.298 89.5144 104.222 117.62 106.775 143.614C101.023 143.229 90.7432 145.001 89.312 151.349C87.0746 161.289 108.562 155.188 107.962 164.455C107.386 173.379 69.9683 169.549 63 169.605L63.0063 170.429C70.4292 170.368 108.151 174.365 108.787 164.505C109.453 154.17 88.1045 160.452 90.1177 151.53C91.4502 145.615 101.567 144.06 106.863 144.445C108.284 155.422 116.515 165.902 134.511 171.224L162.496 171.591L159.377 168.151L166.411 171.643L193.585 172C191.279 165.631 183.092 162.963 169.121 163.937L206.592 149.981H206.778C204.637 152.671 202.897 155.643 201.397 158.771L202.307 159.206C203.891 155.903 205.749 152.776 208.071 149.987L210.101 150.03C209.504 150.639 208.937 151.268 208.393 151.915C205.97 154.797 204.041 158.032 202.401 161.452L203.311 161.887C204.915 158.541 206.799 155.378 209.165 152.563C209.895 151.695 210.671 150.861 211.502 150.06C212.529 150.077 213.499 150.072 214.411 150.018C212.661 151.41 211.114 152.948 209.732 154.591C207.308 157.473 205.38 160.708 203.74 164.128L204.65 164.563C206.254 161.217 208.138 158.055 210.504 155.239C212.194 153.229 214.136 151.39 216.406 149.779L216.781 149.7C226.451 147.471 228.099 143.61 218.982 139.124L200.09 121.756L200.087 121.756ZM199.647 129.426C198.816 129.426 198.143 130.1 198.143 130.932C198.143 131.764 198.816 132.439 199.647 132.439C200.478 132.439 201.151 131.764 201.151 130.932C201.151 130.1 200.478 129.426 199.647 129.426Z" fill="#454545"/>
</svg>
