<svg width="300" height="300" viewBox="0 0 300 300" fill="none" xmlns="http://www.w3.org/2000/svg">
<path d="M155.826 137.681C154.147 136.222 152.647 134.568 151.37 132.741C149.893 134.856 148.125 136.749 146.117 138.362L150.801 147.732L155.826 137.681Z" fill="#454545"/>
<path d="M173.482 144.308C167.912 144.308 162.732 142.61 158.429 139.707L150.801 154.964L143.438 140.239C139.316 142.802 134.472 144.307 129.271 144.307C121.386 144.307 114.052 140.895 108.954 135.031L108.969 144.55C108.969 167.942 128.009 186.965 151.401 186.965C174.778 186.965 193.817 167.941 193.817 144.55L193.795 135.05C188.72 140.903 181.386 144.307 173.483 144.307L173.482 144.308Z" fill="#454545"/>
<path d="M151.372 101.965C154.606 97.3327 159.256 93.7738 164.689 91.8915C156.687 86.4673 146.089 86.4705 138.088 91.9005C143.508 93.7861 148.145 97.3406 151.372 101.965V101.965Z" fill="#454545"/>
<path d="M107.33 93.96C107.827 95.8512 108.409 97.7289 109.056 99.5829C111.812 96.448 115.272 93.9545 119.2 92.3634C118.345 91.7642 117.49 91.1627 116.653 90.5477C113.779 88.432 110.953 86.1707 108.256 83.828L105 81.0024L105.592 85.2723C105.998 88.1893 106.582 91.113 107.33 93.9598L107.33 93.96Z" fill="#454545"/>
<path d="M193.723 99.6075C194.375 97.7445 194.96 95.8588 195.459 93.9586C196.207 91.1116 196.792 88.1889 197.197 85.2698L197.789 81L194.534 83.8255C191.836 86.1681 189.01 88.4296 186.136 90.5441C185.295 91.1625 184.438 91.7673 183.578 92.3688C187.508 93.9655 190.968 96.4661 193.723 99.6076L193.723 99.6075Z" fill="#454545"/>
<path d="M173.482 93.625C163.412 93.625 154.81 99.9383 151.37 108.807C147.934 99.9386 139.341 93.625 129.271 93.625C116.2 93.625 105.555 104.269 105.555 117.356C105.555 121.676 106.72 125.882 108.936 129.554L109.194 129.974C113.594 136.914 121.1 141.072 129.27 141.072C139.34 141.072 147.931 134.759 151.368 125.899C154.809 134.759 163.411 141.072 173.481 141.072C181.65 141.072 189.157 136.931 193.524 130.023C195.918 126.237 197.196 121.87 197.196 117.356C197.198 104.269 186.554 93.625 173.482 93.625H173.482ZM129.27 127.466C123.705 127.466 119.16 122.921 119.16 117.356C119.16 111.775 123.705 107.229 129.27 107.229C134.851 107.229 139.397 111.775 139.397 117.356C139.398 122.921 134.851 127.466 129.27 127.466ZM173.499 127.466C167.918 127.466 163.373 122.921 163.373 117.356C163.373 111.775 167.918 107.229 173.499 107.229C179.065 107.229 183.61 111.775 183.61 117.356C183.61 122.921 179.064 127.466 173.499 127.466Z" fill="#454545"/>
</svg>
