<svg width="300" height="300" viewBox="0 0 300 300" fill="none" xmlns="http://www.w3.org/2000/svg">
<path d="M161.343 80.0138C161.343 80.0138 155.655 75.5575 148.515 77.113C148.515 77.113 151.31 78.6661 152.759 80.0138C152.759 80.0138 148.414 79.3942 143.344 82.3973C143.344 82.3973 145.205 84.158 147.999 84.158C147.999 84.158 143.344 85.7122 140.343 88.0947C140.343 88.0947 141.688 89.9586 145.101 90.6868C145.101 90.6868 140.548 94.4148 136.309 95.6594C136.309 95.6594 140.654 97.6266 144.483 96.5908C144.483 96.5908 140.655 101.254 135.276 101.978C135.276 101.978 137.967 104.051 142.828 103.326C142.828 103.326 138.377 105.916 136.827 110.06C135.276 114.207 133.206 114.825 133.206 114.825C133.206 114.825 140.655 115.241 143.344 110.995C143.344 110.995 140.756 113.793 140.137 118.453C139.519 123.116 137.551 124.153 137.551 124.153C137.551 124.153 146.345 120.768 148.208 115.206C148.208 115.206 148.62 127.364 135.241 135.377C121.862 143.39 122.414 150.021 122.414 150.021C122.414 150.021 107.791 149.608 105.171 161.627C102.554 173.644 107.102 179.031 102 186.079C102 186.079 108.067 183.176 108.481 174.059C108.481 174.059 109.723 184.419 105.171 191.466C105.171 191.466 111.103 188.563 111.931 184.006C111.931 184.006 110.968 192.572 112.895 196.715C112.895 196.715 116.484 192.71 115.931 185.94C115.931 185.94 117.068 189.428 120.483 191.397C120.483 191.397 118.206 183.523 117.794 174.129C117.794 174.129 119.586 178.274 122.139 180.483C122.139 180.483 122.554 171.917 118.759 167.428C114.966 162.937 117.655 157.688 122 157.068C122 157.068 120.758 166.322 129.312 170.605C129.312 170.605 131.244 176.131 126.277 182.763C126.277 182.763 127.104 191.879 134.276 199.893C134.276 199.893 131.345 201.809 133.672 203.417L132.965 206.28C132.965 206.28 137.893 207.316 142.136 206.903C142.136 206.903 141.724 202.482 138.998 199.683C138.998 199.683 132.792 189.115 135.69 185.074C138.586 181.032 149.31 178.201 149.448 166.321C149.586 154.44 160.311 157.41 167.552 152.437C174.792 147.465 176.447 138.347 176.447 138.347C176.447 138.347 177.897 140.626 179.653 140.936C181.413 141.248 188.238 133.787 191.136 133.372C194.035 132.956 190.309 143.008 190.309 143.008C190.309 143.008 190.344 147.328 193.447 148.706C193.447 148.706 197.931 145.875 196.824 137.517C195.723 129.16 195.034 125.5 189.378 128.676C183.722 131.856 181.722 127.435 182.273 123.911C182.826 120.388 181.516 116.382 172.413 111.409C163.309 106.434 164.137 100.115 167.861 100.53C171.583 100.943 174.689 108.923 178.308 107.677C180.627 106.884 182.878 104.085 179.033 100.943C175.103 97.7315 175.309 87.8877 167.963 85.6095L182.088 68L161.343 80.0138Z" fill="#454545"/>
</svg>
