<svg width="300" height="300" viewBox="0 0 300 300" fill="none" xmlns="http://www.w3.org/2000/svg">
<path d="M174.151 137.365C166.867 133.723 159.355 129.853 159.355 120.748V118.471C159.355 114.829 161.859 109.366 168.461 109.366H173.013C173.013 109.366 174.379 109.366 175.517 108.683C176.883 108 177.566 106.634 177.566 104.813C177.566 102.992 176.883 101.627 175.517 100.944C174.379 100.261 173.013 100.261 173.013 100.261H127.487C127.487 100.261 126.121 100.261 124.983 100.944C123.617 101.627 122.934 102.992 122.934 104.813C122.934 106.634 123.617 108 124.983 108.683C126.121 109.366 127.487 109.366 127.487 109.366H132.039C138.641 109.366 141.145 114.829 141.145 118.471V120.748C141.145 130.08 133.633 133.723 126.349 137.365C116.788 142.373 107 147.153 107 163.999C107 198.144 144.332 198.144 150.25 198.144C156.168 198.144 193.5 198.144 193.5 163.999C193.5 147.154 183.712 142.374 174.151 137.365ZM150.25 193.588C137.73 193.588 113.829 187.898 113.829 166.273C113.829 145.786 129.763 145.786 136.592 145.786H163.908C170.737 145.786 186.671 145.786 186.671 166.273C186.671 187.898 162.77 193.588 150.25 193.588Z" fill="#454545"/>
<path d="M161.175 85.2355L157.761 95.7066H142.737L139.322 85.6908L154.346 80L161.175 85.2355Z" fill="#454545"/>
<path d="M182.117 166.272C182.117 184.255 161.175 189.035 150.248 189.035C139.322 189.035 118.38 184.255 118.38 166.272C118.38 151.476 127.485 150.337 136.591 150.337H163.906C173.012 150.337 182.117 151.476 182.117 166.272Z" fill="#454545"/>
</svg>
