<svg width="300" height="300" viewBox="0 0 300 300" fill="none" xmlns="http://www.w3.org/2000/svg">
<path d="M207.18 96.8467L190.552 80.2186C189.437 79.1022 187.793 78.7156 186.298 79.2143L173.827 83.3717C172.129 83.9361 170.984 85.5242 170.984 87.3144V105.079C162.783 99.1599 152.749 95.6291 141.885 95.6291C114.379 95.6291 92 118.008 92 145.514C92 173.02 114.379 195.399 141.885 195.399C169.391 195.399 191.77 173.02 191.77 145.514C191.77 134.651 188.239 124.617 182.32 116.414H200.083C201.874 116.414 203.461 115.27 204.027 113.573L208.185 101.102C208.681 99.6077 208.294 97.9598 207.179 96.8473L207.18 96.8467ZM141.884 174.614C125.838 174.614 112.784 161.56 112.784 145.514C112.784 129.468 125.838 116.415 141.884 116.415C157.93 116.415 170.983 129.468 170.983 145.514C170.983 161.561 157.93 174.614 141.884 174.614V174.614ZM179.298 108.1V90.3114L188.798 99.812L179.298 108.1Z" fill="#454545"/>
</svg>
