<svg width="300" height="300" viewBox="0 0 300 300" fill="none" xmlns="http://www.w3.org/2000/svg">
<path d="M201.161 98.8425L172.239 87.1684H172.24C171.975 87.0706 171.701 87.0022 171.422 86.9641C171.248 86.9348 171.071 86.9348 170.897 86.9641C170.636 86.9221 170.369 86.9221 170.108 86.9641H169.875L130.213 98.6382L101.934 87.1683C101.034 86.8096 100.015 86.921 99.2142 87.4653C98.4129 88.0086 97.9341 88.9144 97.9351 89.8828V177.436C97.9341 178.632 98.6631 179.707 99.7741 180.15L128.667 191.824H128.959H128.958C129.142 191.854 129.329 191.854 129.513 191.824C129.674 191.922 129.852 191.992 130.038 192.028C130.299 192.07 130.565 192.07 130.826 192.028H131.001L170.723 180.675L199.002 191.999H199.001C199.356 192.08 199.724 192.09 200.081 192.028C200.855 192.028 201.598 191.72 202.145 191.173C202.692 190.626 203 189.883 203 189.109V101.556C203.001 100.36 202.272 99.2851 201.161 98.8424L201.161 98.8425ZM113.288 156.247C113.983 154.8 115.718 154.187 117.169 154.876C120.573 156.524 124.119 157.863 127.764 158.874C128.516 159.072 129.158 159.564 129.547 160.237C129.937 160.911 130.04 161.713 129.835 162.464C129.483 163.775 128.274 164.67 126.917 164.623H126.158C122.14 163.514 118.232 162.04 114.484 160.216C113.797 159.852 113.284 159.227 113.059 158.482C112.835 157.736 112.917 156.932 113.288 156.247L113.288 156.247ZM167.716 116.468C171.159 116.148 173.815 116.148 173.815 116.148C175.428 116.148 176.734 117.454 176.734 119.065C176.734 120.678 175.428 121.984 173.815 121.984C173.815 121.984 171.422 121.984 168.241 122.276H167.979C166.367 122.349 165.001 121.101 164.929 119.488C164.857 117.877 166.105 116.512 167.716 116.439L167.716 116.468ZM154.612 142.414C153.806 141.012 154.29 139.221 155.692 138.415C157.094 137.609 158.884 138.093 159.69 139.495C161.338 142.134 162.291 145.145 162.462 148.251C162.458 149.984 162.079 151.696 161.353 153.27C160.883 154.316 159.845 154.99 158.698 154.992C158.272 154.994 157.852 154.893 157.472 154.701C156.019 154.026 155.381 152.307 156.043 150.848C156.434 150.039 156.634 149.15 156.626 148.25C156.449 146.168 155.756 144.162 154.612 142.414L154.612 142.414ZM153.795 129.719C154.371 131.218 153.627 132.899 152.131 133.483C151.799 133.622 151.441 133.691 151.081 133.688C149.878 133.684 148.8 132.942 148.367 131.82C147.837 130.552 147.56 129.195 147.549 127.821C147.549 125.165 148.892 121.488 155.195 119.066C156.703 118.478 158.401 119.222 158.99 120.73C159.578 122.237 158.833 123.935 157.327 124.523C155.838 125.077 153.387 126.274 153.387 127.851C153.421 128.463 153.559 129.065 153.795 129.631L153.795 129.719ZM151.548 162.756C147.619 164.856 143.249 165.997 138.794 166.084C137.183 166.084 135.876 164.776 135.876 163.165C135.876 161.552 137.183 160.246 138.794 160.246C142.314 160.149 145.762 159.23 148.863 157.561C150.274 156.756 152.07 157.245 152.876 158.655C153.682 160.066 153.191 161.862 151.781 162.668L151.548 162.756ZM191.677 121.138C192.809 122.277 192.809 124.115 191.677 125.253C190.539 126.385 188.7 126.385 187.562 125.253L185.49 123.182L183.417 125.254V125.253C182.28 126.385 180.441 126.385 179.303 125.253C178.171 124.115 178.171 122.277 179.303 121.139L181.375 119.066L179.303 116.993V116.994C178.311 115.836 178.378 114.11 179.456 113.032C180.534 111.954 182.259 111.888 183.417 112.88L185.49 114.952L187.562 112.88C188.72 111.888 190.446 111.954 191.524 113.032C192.602 114.11 192.669 115.836 191.677 116.994L189.605 119.067L191.677 121.138ZM107.218 149.186C108.308 149.889 108.802 151.229 108.431 152.473C108.059 153.717 106.911 154.565 105.613 154.555C105.043 154.559 104.486 154.397 104.007 154.088H103.774V146.793C104.533 147.376 105.729 148.251 107.218 149.186L107.218 149.186Z" fill="#454545"/>
</svg>
