<svg width="300" height="300" viewBox="0 0 300 300" fill="none" xmlns="http://www.w3.org/2000/svg">
<rect width="300" height="300" fill="#887F72"/>
<mask id="mask0_148_655" style="mask-type:alpha" maskUnits="userSpaceOnUse" x="0" y="0" width="300" height="300">
<rect width="300" height="300" fill="white"/>
</mask>
<g mask="url(#mask0_148_655)">
<g clip-path="url(#clip0_148_655)">
<path d="M180.947 26.4843C184.815 33.1681 187.225 40.5968 188.018 48.2809C188.357 51.3568 188.224 54.4658 188.383 57.5815C188.735 64.5902 189.365 71.5324 190.088 78.5345C190.353 81.0589 190.678 83.7229 189.889 86.1344C188.713 89.6379 186.225 92.548 182.95 94.2524C180.703 95.4679 178.206 96.1498 175.653 96.2454C169.756 96.551 163.839 96.6374 157.962 97.1888C150.234 97.8009 142.557 98.9351 134.983 100.584C126.678 102.517 118.253 103.6 109.775 104.603C103.92 105.375 98.0226 105.79 92.1166 105.845C76.7506 106.116 73.4709 107.924 73.8279 90.1004C73.9672 83.1449 75.5857 76.4152 77.7748 69.9181C81.0451 60.064 83.5077 49.9593 85.1381 39.7045C85.8015 35.7185 86.5842 31.7724 88.9325 28.2581C90.994 25.2324 93.9526 22.9318 97.3904 21.6812C100.9 20.2795 104.614 20.0204 108.289 19.6883C124.767 18.2799 141.278 18.1935 157.789 18.5257C161.106 18.5921 164.529 18.4725 167.839 19.19C170.91 19.9009 178.248 21.852 180.947 26.4843Z" fill="#BBB5AB"/>
<path d="M169.06 358.615C168.96 352.504 169.298 346.657 169.597 340.818C170.055 331.79 170.625 322.735 172.755 313.879C174.307 307.402 176.416 301.184 181.086 296.202C184.622 292.435 189.113 290.548 194.174 289.99C202.519 289.067 210.334 291.12 217.956 294.308C220.676 295.444 223.482 296.381 226.301 297.251C232.682 299.244 236.55 303.782 239.342 309.555C241.487 313.868 243.251 318.36 244.616 322.981C246.321 329.056 247.603 335.242 248.45 341.496C248.921 344.957 249.419 348.431 249.585 351.912C249.751 355.393 249.193 358.655 247.11 361.505C241.835 368.819 235.509 375.311 228.337 380.771C224.768 383.539 220.93 385.94 216.881 387.939C214.168 389.228 211.183 388.696 208.364 388.271C201.697 387.261 195.421 384.704 188.901 383.069C184.701 382.059 180.598 380.679 176.642 378.944C171.998 376.864 170.075 373.158 169.478 368.434C169.099 365.176 168.96 361.894 169.06 358.615V358.615Z" fill="#C7C7C4"/>
<path d="M127.308 198.034C132.21 195.695 136.834 192.859 141.557 190.201C145.736 187.85 149.663 184.933 154.446 183.85C157.411 183.186 160.084 184.468 160.675 187.332C161.095 188.858 161.408 190.412 161.61 191.982C161.697 193.848 162.174 195.675 163.009 197.346C163.844 199.016 165.02 200.493 166.459 201.681C169.218 204.073 171.409 207.05 172.874 210.397C175.587 216.19 177.212 222.255 177.013 228.746C176.895 236.714 174.169 244.423 169.252 250.689C166.765 253.716 163.995 256.499 160.98 258.999C157.232 262.268 154.267 266.26 150.937 269.921C146.541 274.763 141.402 278.872 135.713 282.091C131.799 284.304 127.719 285.931 123.076 285.931C117.251 285.931 113.543 282.41 111.586 277.767C110.613 275.2 109.867 272.552 109.357 269.854C108.807 267.41 107.553 265.118 106.624 262.753C104.634 257.598 103.632 252.21 102.836 246.756C101.702 238.99 101.808 231.131 100.926 223.351C100.097 215.977 103.44 210.656 109.636 206.876C114.346 203.993 119.54 202.139 124.422 199.635C124.847 199.416 125.231 199.137 125.636 198.884C125.785 198.58 126.028 198.333 126.33 198.179C126.632 198.026 126.975 197.975 127.308 198.034V198.034Z" fill="#BBB5AB"/>
<path d="M242.692 -49.5614C243.614 -58.3438 248.238 -63.3329 256.815 -64.841C259.789 -65.3767 262.802 -65.6677 265.824 -65.7112C268.159 -65.7112 270.467 -66.0833 272.822 -66.0168C282.295 -65.7445 291.788 -65.6847 301.154 -63.9906C303.264 -63.612 304.252 -61.7983 305.44 -60.3567C311.178 -53.3813 313.539 -45.0373 315.018 -36.328C316.345 -28.356 316.869 -20.2379 319.118 -12.4121C320.033 -9.21008 319.118 -5.99473 317.612 -3.06504C314.003 4.01671 308.511 9.50409 302.448 14.4401C300.106 16.34 297.207 15.9481 294.773 14.7656C290.567 12.7327 286.434 13.1845 282.169 14.1344C277.904 15.0844 273.545 16.3334 269.015 16.3666C266.251 16.438 263.513 15.812 261.054 14.5463C259.104 13.5233 257.154 12.5002 255.23 11.4373C253.918 10.7478 252.778 9.77097 251.895 8.57941C251.011 7.38784 250.408 6.01223 250.129 4.55483C248.51 -3.10488 246.732 -10.7247 245.28 -18.4243C244.183 -24.0867 243.371 -29.8004 242.845 -35.5441C242.416 -40.437 242.221 -41.2174 242.692 -49.5614Z" fill="#BBB5AB"/>
<path d="M279.243 168.279C271.97 167.755 264.672 167.646 257.386 167.953C248.762 168.398 240.192 168.126 231.594 168.259C229.877 168.217 228.19 167.79 226.659 167.01C224.297 165.947 223.428 163.814 223.236 161.33C222.964 157.789 223.747 154.361 224.238 150.9C225.22 144.044 226.487 137.241 227.409 130.379C228.019 125.835 228.324 121.244 229.326 116.747C229.87 114.397 231.036 112.237 232.702 110.495C238.527 104.078 245.777 99.9059 253.824 96.9629C261.28 94.2325 269.008 92.8374 276.869 91.9871C281.114 91.5354 285.366 91.542 289.612 91.3228C291.874 91.251 294.139 91.3822 296.378 91.7147C298.978 92.0535 299.993 93.3955 300.896 96.9164C302.269 102.264 301.692 107.692 301.068 113.093C300.352 119.218 299.642 125.343 298.872 131.468C297.804 139.965 297.546 148.568 295.555 156.945C294.972 159.716 293.8 162.328 292.119 164.605C291.255 165.724 290.15 166.633 288.887 167.267C287.624 167.901 286.235 168.242 284.822 168.265C282.965 168.338 281.101 168.279 279.243 168.279Z" fill="#C7C7C4"/>
<path d="M243.807 276.451C243.755 271.59 244.319 266.741 245.485 262.022C245.994 260.019 246.796 258.103 247.867 256.335C248.435 255.351 249.223 254.511 250.169 253.882C251.115 253.253 252.193 252.851 253.319 252.708C260.311 251.572 267.323 250.542 274.427 250.715C281.021 250.868 287.695 251.492 293.128 255.525C298.56 259.557 304.504 263.596 307.576 270.2C308.975 273.209 309.493 276.511 310.673 279.607C311.313 281.275 312.059 282.899 312.909 284.47C318.342 294.621 320.305 305.29 317.446 316.603C316.863 319.391 315.48 321.947 313.466 323.957C312.76 324.67 311.906 325.218 310.965 325.562C310.024 325.907 309.018 326.039 308.02 325.95C298.408 325.08 288.783 325.286 279.137 325.286C274.122 325.286 269.101 325.552 264.099 324.794C258.759 323.991 255.044 321.194 252.782 316.271C250.52 311.348 249.585 305.894 248.225 300.639C246.659 294.581 244.908 288.555 244.105 282.324C243.898 280.373 243.798 278.413 243.807 276.451Z" fill="#D4D2CA"/>
<path d="M358.886 191.769C358.793 196.054 357.878 199.602 357.327 203.202C357.142 204.425 356.87 205.634 356.664 206.849C355.901 211.5 352.505 213.978 348.916 216.25C344.04 219.218 338.91 221.746 333.586 223.803C327.844 226.142 322.667 229.682 318.402 234.187C315.204 237.508 312.106 240.943 308.803 244.152C306.362 246.523 303.622 248.436 299.887 248.217C297.851 248.098 296.192 247.174 294.58 246.138C291.678 244.137 289.186 241.598 287.237 238.658C282.327 231.921 278.275 224.596 275.177 216.854C273.638 212.868 274.374 209.487 276.212 206.032C278.693 201.382 282.408 197.788 286.613 194.779C294.156 189.371 300.617 182.821 306.979 176.177C312.756 170.092 318.693 164.14 325.294 158.905C326.777 157.795 328.553 157.148 330.402 157.045C334.382 156.62 338.03 157.204 341.181 159.875C344.332 162.545 346.083 165.894 347.151 169.787C348.77 175.728 351.86 181.163 356.133 185.591C358.064 187.564 359.245 189.604 358.886 191.769Z" fill="#BBB5AB"/>
<path d="M52.8192 320.928C53.0713 315.069 53.6485 310.385 56.2356 306.213C58.0684 303.38 60.3544 300.869 63.0018 298.779C69.8344 293.139 76.6139 287.446 83.0551 281.354C84.9922 279.514 87.241 278.032 89.1647 276.152C92.4815 272.95 97.3439 273.781 100.833 275.621C103.977 277.275 106.034 280.059 108.044 282.862C110.299 286.011 113.218 288.555 115.818 291.385C121.961 298.029 123.062 305.781 121.019 314.185C120.303 317.128 118.485 319.673 116.767 322.157C109.55 332.547 103.274 343.509 96.8663 354.377C94.8762 357.699 92.6009 358.503 88.906 357.101C83.0949 354.895 78.206 351.261 73.536 347.282C67.3004 341.967 61.5955 336.135 56.8989 329.345C54.8889 326.475 52.7662 323.612 52.8192 320.928Z" fill="#C7C7C4"/>
<path d="M31.4193 44.1289C31.4193 47.9089 31.4193 51.6823 30.5769 55.4225C30.0578 57.3041 29.0063 58.9952 27.5492 60.2918C26.092 61.5885 24.2914 62.4352 22.3645 62.7301C15.3461 63.4675 8.36097 63.3213 1.53501 61.4679C-5.58282 59.5413 -8.70061 55.1036 -9.07872 48.0219C-9.40377 41.9499 -8.20972 35.9909 -7.29428 30.0252C-6.88963 27.3679 -6.6309 24.7106 -6.23288 22.0532C-5.0123 14.2872 -2.57116 6.97297 1.91978 0.449262C4.17289 -3.01635 6.97078 -6.09425 10.2051 -8.6653C15.512 -12.6513 21.3694 -15.6341 27.9831 -16.8764C29.5158 -17.2194 31.0659 -17.4789 32.6266 -17.6537C36.7925 -17.9593 40.9584 -17.6537 45.1243 -17.481C48.3248 -17.4069 51.5154 -17.096 54.67 -16.5509C55.5501 -16.4217 56.3824 -16.0687 57.0874 -15.5256C57.7923 -14.9824 58.3464 -14.2673 58.6966 -13.4485C61.0648 -8.45272 61.6021 -3.16466 60.9122 2.25626C60.753 3.53842 60.6734 4.83387 60.4213 6.12931C59.4064 11.2181 56.4412 14.5596 51.8508 16.7586C47.5854 18.7914 43.1077 20.3725 39.0214 22.8039C34.5636 25.4613 32.5669 29.5402 31.8173 34.4496C31.4233 37.66 31.2901 40.897 31.4193 44.1289V44.1289Z" fill="#C7C7C4"/>
<path d="M167.421 10.9457C160.147 11.0671 152.873 10.6385 145.663 9.66357C145.192 9.59714 144.728 9.44432 144.263 9.34467C138.552 8.20867 137.59 7.15241 136.389 1.45912C135.212 -4.03712 134.487 -9.62063 134.22 -15.2355C134.094 -18.1186 133.908 -20.9952 133.908 -23.8717C133.908 -27.7647 134.572 -31.4982 136.515 -34.9461C138.185 -37.8987 140.856 -40.1542 144.044 -41.3037C148.19 -42.9114 152.542 -43.4296 156.854 -44.1271C164.078 -45.303 171.315 -46.419 178.532 -47.6414C183.043 -48.4054 187.514 -49.4683 192.131 -49.5879C195.375 -49.6742 197.763 -48.2592 199.82 -45.9474C201.876 -43.6355 203.216 -40.7788 204.463 -37.9754C209.818 -25.9378 211.707 -19.6267 207.395 -1.82266C202.088 2.76121 195.747 5.29229 189.159 7.33178C184.177 8.87425 175.554 10.9458 167.421 10.9457Z" fill="#C7C7C4"/>
<path d="M166.148 100.424C167.379 100.335 168.616 100.361 169.842 100.504C174.32 101.347 176.323 105.34 176.94 109.299C177.324 112.161 177.464 115.05 177.358 117.936C177.285 122.42 178.174 126.798 178.685 131.222C179.275 136.118 180.304 140.948 180.675 145.838C180.874 148.242 180.914 150.641 181.053 153.039C181.265 156.593 179.302 158.925 176.96 161.157C173.962 164.014 170.327 165.807 166.658 167.515C160.516 170.331 155.069 174.357 149.159 177.566C146.764 178.895 144.376 180.223 141.676 180.888C138.539 181.625 136.263 180.728 134.379 178.077C131.659 174.297 130.519 169.959 129.736 165.455C128.542 158.739 128.31 151.963 128.031 145.167C127.825 140.104 126.916 135.082 126.572 130.027C126.3 126.001 125.908 121.955 126.492 117.909C126.64 116.616 127.101 115.378 127.837 114.305C128.572 113.231 129.559 112.354 130.711 111.751C135.384 109.035 140.291 106.743 145.371 104.902C151.048 102.871 156.902 101.379 162.857 100.444C163.952 100.355 165.052 100.348 166.148 100.424V100.424Z" fill="#D4D2CA"/>
<path d="M61.4562 127.157C57.8011 134.723 53.2571 141.772 48.7197 148.807C48.095 149.886 47.1844 150.772 46.0886 151.365C44.9928 151.958 43.7545 152.236 42.5107 152.169C38.9086 152.102 35.3066 152.335 32.3745 149.691C29.7464 147.378 27.4415 144.721 25.522 141.792C24.2291 139.87 22.5505 138.239 20.5933 137.002C15.2068 133.295 9.92645 129.495 5.80698 124.3C3.00761 120.779 2.57644 116.82 3.96287 112.801C7.49194 102.603 11.2598 92.4919 14.9149 82.3343C16.037 79.0168 17.3346 75.7614 18.8022 72.582C19.7243 70.6953 20.7923 69.7121 23.26 70.0111C29.0366 70.7994 34.7432 72.0366 40.3282 73.7114C45.8898 75.2494 51.2971 77.2998 56.481 79.8365C58.3451 80.7665 60.0897 81.8295 61.2108 83.8955C68.4027 97.7162 67.5366 114.575 61.4562 127.157Z" fill="#BBB5AB"/>
<path d="M4.0757 314.67C4.28134 307.807 4.73907 300.958 5.28966 294.116C5.4953 291.518 5.7341 288.914 5.82697 286.303C6.01272 281.075 6.00608 275.84 6.28469 270.625C6.59647 264.825 6.87508 258.953 9.05753 253.432C9.18357 253.113 9.29632 252.768 9.41573 252.462C12.0095 245.361 17.6945 245.912 22.2849 249.094C27.0544 252.416 30.5503 256.873 34.0197 261.378C38.6301 267.551 42.7025 274.11 46.1923 280.982C48.2463 284.861 50.0801 288.854 51.6849 292.94C52.4677 294.933 52.534 296.507 51.1277 298.6C46.7363 305.13 43.1674 312.086 43.7909 320.377C44.0298 323.559 43.4792 326.681 42.9551 329.797C42.6035 331.876 41.2503 333.444 39.6383 334.646C36.39 337.108 32.4345 338.452 28.3612 338.479C22.8156 338.606 17.3428 338.127 12.3544 335.517C9.10394 333.816 7.00773 331.006 5.68101 327.498C4.12875 323.286 4.04253 319.008 4.0757 314.67Z" fill="#D4D2CA"/>
<path d="M186.745 270.432C185.723 266.646 185.418 262.74 185.179 258.847C184.45 247.832 184.907 236.798 184.768 225.776C184.701 222.406 185.149 219.046 186.095 215.811C187.965 209.54 190.99 208.072 197.332 209.832C203.024 211.374 208.39 213.971 214.208 215.147C217.351 215.844 220.561 216.199 223.78 216.203C228.112 216.13 230.845 218.15 232.404 221.917C236.095 230.933 238.423 255.54 238.002 266.247C237.757 272.439 237.631 278.737 235.263 284.642C233.777 288.343 230.115 289.426 226.765 287.3C223.866 285.466 221.511 282.935 218.467 281.274C213.093 278.345 207.594 276.066 201.325 276.312C196.198 276.53 187.164 271.986 186.745 270.432Z" fill="#D4D2CA"/>
<path d="M69.171 217.339C80.9921 217.612 88.5146 222.388 93.7153 230.985C97.7588 237.418 99.8341 244.895 99.6855 252.495C99.636 254.906 98.9493 257.26 97.6955 259.318C94.0934 265.297 88.6871 269.369 82.9026 273.023C78.7702 275.584 74.4032 277.744 69.8609 279.474C67.5888 280.459 65.0383 280.591 62.6768 279.846C57.4628 278.205 54.0531 274.458 50.8093 270.399C49.0646 268.214 47.4195 265.948 45.7213 263.716C44.0231 261.484 41.7942 260.095 39.9567 258.149C37.5554 255.618 35.1474 253.12 33.3563 250.071C31.1407 246.304 32.5868 243.208 34.9616 240.285C37.5355 237.116 40.8124 234.745 44.0828 232.346C48.7263 228.938 53.1907 225.291 57.8608 221.93C61.6685 219.199 65.768 216.868 69.171 217.339Z" fill="#D4D2CA"/>
<path d="M89.9077 -38.394C96.5413 -38.394 103.002 -37.1451 109.404 -35.5507C112.469 -34.7867 115.467 -33.6839 118.565 -33.1392C123.208 -32.3154 125.304 -29.1532 126.392 -25.1008C127.626 -20.4904 127.719 -15.7205 127.772 -10.9772C127.73 -9.531 127.936 -8.08833 128.382 -6.71221C128.993 -5.0846 128.727 -3.66957 128.17 -2.12832C126.757 1.79121 125.119 5.57124 121.802 8.29499C118.644 10.8859 114.804 11.7893 110.883 12.1016C105.47 12.5334 100.143 13.49 94.8033 14.3935C89.4632 15.297 84.2625 15.2904 79.1015 13.7292C76.4367 12.9855 73.9868 11.6174 71.9544 9.73798C69.922 7.85853 68.3654 5.52168 67.4132 2.92055C64.8554 -3.70812 63.9448 -10.8601 64.7597 -17.9194C65.1047 -21.4138 65.2374 -24.9215 66.5375 -28.2298C67.38 -30.3623 68.5276 -32.2556 70.6305 -33.4714C76.886 -37.0322 82.0469 -38.4007 89.9077 -38.394Z" fill="#B5AFA8"/>
<path d="M-55.0627 114.833C-55.673 104.948 -51.2351 96.7437 -43.2218 90.5588C-34.2513 83.5799 -24.4131 77.7983 -13.9544 73.3593C-10.4452 71.8845 -6.72373 71.7848 -3.03546 71.4925C-0.84974 71.2748 1.31956 70.9153 3.45881 70.4163C6.92155 69.6723 9.09735 71.3996 9.04428 74.9736C8.97795 78.9596 7.53848 82.6533 6.03929 86.2672C4.37426 90.2532 2.51022 94.186 0.778854 98.1653C-2.20626 105.048 -4.47497 112.196 -6.9095 119.291C-7.1284 119.955 -7.44683 120.553 -7.67238 121.204C-8.68731 124.154 -10.6707 125.775 -13.7156 126.765C-21.6228 129.322 -29.3576 132.398 -37.4439 134.404C-39.7149 134.969 -42.0497 135.235 -44.3893 135.195C-48.993 135.109 -51.8322 133.076 -53.3313 128.665C-54.7907 124.373 -55.003 119.902 -55.0627 114.833Z" fill="#908787"/>
<path d="M73.3967 126.021C75.1479 126.107 77.1446 127.436 78.4382 129.701C80.2956 132.95 81.1314 136.57 81.8213 140.204C82.7235 145 83.367 149.843 83.0552 154.74C82.624 161.655 81.9938 168.578 79.42 175.101C78.2964 178.039 76.8052 180.823 74.9821 183.385C70.1396 190.029 65.5226 196.811 60.7133 203.475C59.3866 205.282 57.9338 206.982 55.5324 207.633C53.1311 208.284 50.8889 207.633 48.8591 206.544C44.8789 204.378 40.8258 202.385 37.2105 199.675C33.708 197.017 30.5769 194.121 28.3148 190.162C25.7609 185.717 26.5901 182.037 29.1573 178.204C32.8124 172.696 37.6549 168.372 42.6699 164.186C49.58 158.508 55.1084 151.329 58.836 143.194C60.9279 138.51 63.3809 133.997 66.1727 129.694C67.7979 127.203 69.8676 126.034 73.3967 126.021Z" fill="#D9DCDB"/>
<path d="M271.907 23.7074C279.316 23.6813 286.7 24.5602 293.897 26.3248C297.877 27.2549 300.305 29.7993 301.048 33.9181C301.754 37.2166 301.888 40.612 301.446 43.9561C301.333 45.193 301.313 46.4365 301.386 47.6764C301.371 56.1336 300.792 64.5804 299.655 72.9607C299.224 75.9502 298.673 79.0459 295.794 80.8463C293.804 82.1019 291.443 82.4606 289.161 82.9123L276.252 85.4833C273.898 85.9503 271.512 86.2391 269.114 86.3469C264.079 86.5728 262.374 84.3141 262.149 79.305C262.009 76.289 262.487 73.273 262.56 70.2436C262.779 61.5343 260.815 53.2102 258.58 44.8928C257.205 39.9832 256.767 34.8583 257.286 29.786C257.598 27.049 259.276 25.8 261.472 25.0028C265.048 23.6808 268.756 23.621 271.907 23.7074Z" fill="#B5AFA8"/>
<path d="M-1.2311 134.677C2.45717 134.61 4.79881 136.756 7.29304 138.523C9.07748 139.786 10.7425 141.214 12.4606 142.562C13.6939 143.517 15.8629 146.862 17.2103 148.428C20.1821 151.89 23.353 155.198 26.1988 158.779C28.4542 161.629 28.5537 164.758 27.1606 168.079C25.2634 172.57 21.9931 175.965 18.537 179.227C14.5104 183.007 9.68116 184.435 4.25488 184.428C-0.760109 184.428 -5.74194 184.276 -10.6773 183.193C-13.335 182.519 -15.808 181.256 -17.9146 179.499C-19.5929 178.17 -21.3441 177.021 -23.1219 175.872C-25.9545 174.038 -29.2249 173.421 -32.3427 172.55C-36.3228 171.408 -38.1603 169.016 -38.4853 165.077C-38.6114 163.509 -39.0956 161.994 -39.3477 160.426C-40.3295 154.54 -37.4173 150.548 -33.1851 147.219C-28.0441 143.18 -22.0937 140.789 -15.9378 138.763C-12.0239 137.48 -8.0438 136.471 -4.13662 135.182C-3.21081 134.823 -2.22337 134.652 -1.2311 134.677Z" fill="#D4D2CA"/>
<path d="M227.15 208.836C222.848 208.56 218.599 207.734 214.506 206.378C209.352 204.757 204.105 203.468 198.858 202.173C192.761 200.665 186.519 199.721 180.569 197.635C177.631 196.647 174.913 195.095 172.569 193.065C170.532 191.251 170.313 188.547 170.439 186.202C170.672 182.044 171.587 177.938 173.882 174.244C178.061 167.561 184.131 165.043 191.594 166.638C196.762 167.734 201.664 169.627 206.705 171.082C213.279 172.982 219.866 174.855 226.354 177.015C228.915 177.776 231.351 178.909 233.585 180.376C234.921 181.234 236.006 182.431 236.73 183.845C237.453 185.259 237.789 186.841 237.704 188.428C237.585 192.812 238.075 197.217 237.041 201.575C235.9 206.225 232.828 208.796 227.999 208.803L227.15 208.836Z" fill="#D9DCDB"/>
<path d="M244.669 60.3053C246.387 60.3053 248.178 59.9864 249.804 60.3717C253.12 61.1689 254.314 63.8129 254.62 67.015C255.077 71.7982 255.84 76.5747 255.429 81.3977C255.177 84.4337 254.553 87.3767 252.165 89.6088C249.871 91.6878 247.293 93.4302 244.51 94.7839C239.447 97.3693 234.207 99.5893 228.828 101.427C225.359 102.596 222.314 101.952 219.362 100.351C213.014 96.9164 208.085 91.9606 204.151 85.8952C201.956 82.5072 200.019 79.0194 199.448 75.0135C198.652 69.4199 199.043 66.4702 204.025 63.5605C206.015 62.3913 208.476 62.2783 210.752 61.8864C214.748 61.2082 218.8 60.9168 222.851 61.0161C230.142 61.1556 237.392 60.3584 244.669 60.3053Z" fill="#C7C7C4"/>
<path d="M116.555 196.439C113.324 197.336 110.114 198.293 106.73 198.499C105.298 198.585 104.449 198.067 103.46 196.944C100.681 193.802 98.0272 190.587 95.4998 187.219C91.724 182.221 89.1477 176.42 87.9707 170.265C87.4134 167.349 87.7253 164.525 88.0901 161.675C88.6739 157.131 89.1979 152.574 90.4782 148.143C91.7054 143.898 93.9741 140.636 98.3191 139.035C103.219 137.195 108.522 136.704 113.676 137.613C116.933 138.171 118.545 140.39 119.401 143.313C120.941 148.931 121.942 154.684 122.392 160.493C122.752 164.383 123.337 168.249 124.144 172.072C125.47 178.37 125.988 184.548 123.202 190.6C122.711 192.998 119.248 196.034 116.555 196.439Z" fill="#D4D2CA"/>
<path d="M225.299 54.4126C222.577 54.43 219.855 54.2991 217.146 54.0207C211.714 53.3231 210.307 49.5896 211.037 45.2316C212.224 38.1432 213.498 31.0681 214.48 23.9731C215.216 18.6186 215.607 13.211 216.656 7.903C217.319 4.42192 218.341 1.0139 220.682 -1.87593C222.459 -3.96955 224.743 -5.57084 227.316 -6.52623C229.196 -7.34544 231.184 -7.88697 233.22 -8.13389C236.152 -8.43948 237.863 -6.95802 239.077 -4.55315C240.755 -1.27137 242.586 1.93071 243.508 5.5513C244.445 9.04727 245.169 12.5969 245.678 16.1806C246.215 20.2728 245.744 24.2854 245.492 28.2979C245.18 33.2139 245.233 38.1765 244.324 43.046C243.955 45.3602 243.11 47.5724 241.843 49.5431C239.807 52.5459 236.709 53.5822 233.399 53.9609C230.453 54.2665 227.508 54.685 225.299 54.4126Z" fill="#D9DCDB"/>
<path d="M-5.41696 218.954C-4.6939 214.144 -5.48992 208.989 -4.58112 203.953C-4.03717 200.944 -3.18144 198.067 -1.18473 195.649C2.37751 191.331 7.20675 191.178 12.2018 191.59C13.0178 191.656 13.8204 191.922 14.6364 191.969C20.4407 192.294 23.6382 196.559 27.1407 200.299C30.9351 204.358 34.1922 208.936 38.9352 212.058C39.6492 212.6 40.301 213.219 40.8788 213.905C43.8175 216.934 44.2553 220.129 41.2769 222.986C34.4907 229.49 27.7974 236.273 18.0129 238.305C12.8984 239.355 7.84358 239.727 2.79542 237.821C-1.43681 236.226 -3.69223 233.17 -4.50152 228.852C-5.11845 225.67 -5.14498 222.428 -5.41696 218.954Z" fill="#B0A9A3"/>
<path d="M216.742 118.394C215.335 128.671 215.939 138.988 215.787 149.345C215.797 150.142 215.623 150.931 215.278 151.649C214.933 152.367 214.426 152.996 213.797 153.484C212.459 154.458 211.331 155.691 210.48 157.111C209.816 158.367 208.43 158.779 207.163 159.044C201.71 160.22 196.496 159.974 192.038 156.035C190.392 154.463 189.144 152.52 188.396 150.368C186.44 145.419 186.287 140.171 185.982 134.956C185.829 132.352 185.717 129.721 185.683 127.123C185.61 120.035 186.227 112.98 188.231 106.124C188.467 105.403 188.753 104.699 189.086 104.018C190.519 100.803 192.788 99.1286 196.523 99.4342C202.645 99.9325 208.058 102.092 212.496 106.27C215.959 109.499 217.014 113.757 216.742 118.394Z" fill="#B6AFA8"/>
<path d="M49.7745 29.5402C56.5407 29.786 63.2937 30.2046 69.9472 31.6196C75.6388 32.8619 78.9158 37.7779 77.5626 43.7236C76.0823 50.2626 73.9281 56.63 71.1346 62.7235C70.3624 64.5318 69.4761 66.2892 68.4812 67.9849C66.5774 71.0408 64.5674 71.9709 61.0317 71.2534C57.496 70.5359 54.0929 69.473 51.0813 67.4867C48.3549 65.695 46.3593 62.9848 45.456 59.8469C43.5323 53.2767 41.708 46.6799 39.9369 40.0765C39.3734 38.2478 39.2283 36.3155 39.5123 34.423C40.0695 31.5199 42.1658 29.972 45.6219 29.5668C47.0045 29.4805 48.3909 29.4716 49.7745 29.5402Z" fill="#D9DCDB"/>
<path d="M248.019 186.109C247.469 179.466 251.495 177.42 256.57 176.536C259.98 175.945 263.422 176.005 266.845 175.832C270.985 175.619 274.985 174.576 279.084 174.224C281.955 173.868 284.867 174.094 287.648 174.889C290.116 175.699 291.025 177.632 290.176 180.11C288.889 183.864 286.375 186.793 283.602 189.497C277.671 195.29 271.223 200.425 263.887 204.325C261.792 205.535 259.437 206.219 257.021 206.318C253.704 206.351 251.416 204.837 250.096 201.787C249.187 199.498 248.647 197.078 248.497 194.619C248.231 191.65 248.158 188.687 248.019 186.109Z" fill="#B0A9A3"/>
<path d="M260.955 215.027C264.583 214.496 267.071 216.124 268.829 219.126C270.892 222.661 273.585 225.829 275.011 229.756C275.767 231.842 276.338 233.954 276.066 236.2C275.555 240.186 272.816 242.086 269.359 243.135C267.315 243.728 265.199 244.036 263.071 244.052C259.23 244.132 255.382 243.799 251.535 244.377C249.485 244.69 247.422 244.065 245.512 243.334C244.903 243.123 244.351 242.773 243.9 242.312C243.449 241.851 243.11 241.291 242.911 240.677C241.849 237.601 240.529 234.8 241.047 231.549C241.571 228.294 241.047 224.906 242.573 221.757C243.192 220.413 244.112 219.23 245.263 218.301C246.414 217.372 247.764 216.722 249.207 216.403C253.041 215.399 257.021 215.28 260.955 215.027Z" fill="#D4D2CA"/>
<path d="M111.911 108.542C112.701 108.542 113.112 108.542 113.523 108.542C119.533 108.21 120.906 111.472 120.203 116.282C119.5 121.091 117.404 125.649 114.956 129.894C113.43 132.551 110.498 132.95 107.812 133.454C103.692 134.218 99.5529 134.863 95.4069 135.447C93.9718 135.624 92.5224 135.65 91.0818 135.527C88.8993 135.374 87.9309 133.694 87.2211 131.953C85.7219 128.286 86.0535 124.486 86.9889 120.786C88.8065 113.578 92.9591 110.249 100.362 109.426C104.329 108.981 108.309 108.874 111.911 108.542Z" fill="#B0A9A3"/>
<path d="M189.783 25.5874C189.678 22.7108 189.93 19.8322 190.533 17.0176C191.276 13.3372 193.81 11.0386 197.524 10.9257C199.793 10.846 202.068 10.846 204.337 10.9257C207.853 11.0519 209.843 13.2044 210.015 16.712C210.175 19.9141 209.551 23.0431 208.987 26.1322C207.972 31.7391 207.316 37.4257 206.334 43.0127C205.352 48.5998 202.632 51.3767 196.901 51.8284C194.858 51.9878 192.695 50.4998 191.78 48.3606C190.453 45.3114 190.566 42.0296 190.227 38.8341C190.002 36.6485 190.227 34.423 190.048 32.1909C189.869 29.9587 189.756 27.979 189.783 25.5874Z" fill="#B0A9A3"/>
<path d="M158.731 296.534C156.025 297.125 154.479 296.162 153.371 293.644C150.757 287.712 151.786 282.483 155.965 277.627C159.633 273.369 163.116 268.938 166.691 264.6C168.126 262.833 169.882 261.354 171.866 260.242C174.519 258.76 176.038 259.411 176.934 262.387C177.743 265.085 177.524 267.875 177.259 270.592C175.571 288.433 167.28 294.651 158.731 296.534Z" fill="#B6AFA8"/>
<path d="M72.249 201.515C72.5161 198.777 73.3903 196.134 74.8076 193.778C76.225 191.422 78.1497 189.412 80.4415 187.896C81.0631 187.513 81.7641 187.277 82.4908 187.207C83.2175 187.136 83.9506 187.234 84.6339 187.491C86.4888 188.017 88.1919 188.978 89.6025 190.294C92.381 193.067 94.8642 196.122 97.0122 199.409C99.4865 203.023 98.8431 208.71 95.8049 212.091C95.1416 212.855 94.372 213.579 93.6224 214.29C89.901 217.818 86.4781 218.11 82.2923 215.16C79.1148 212.928 76.541 210.038 73.987 207.149C73.3333 206.375 72.8424 205.478 72.5437 204.509C72.2451 203.541 72.1448 202.523 72.249 201.515V201.515Z" fill="#B0A9A3"/>
<path d="M142.472 289.618C143.356 289.563 144.242 289.563 145.126 289.618C147.892 289.977 149.424 291.837 149.696 294.594C150.041 298.102 148.549 300.573 145.769 302.433C141.411 305.376 136.482 306.499 131.354 306.818C130.316 306.921 129.272 306.687 128.376 306.152C127.481 305.616 126.781 304.806 126.379 303.842C125.359 301.726 124.826 299.408 124.82 297.059C124.783 296.508 124.913 295.96 125.194 295.485C125.475 295.011 125.893 294.633 126.392 294.401C131.344 291.662 136.83 290.03 142.472 289.618V289.618Z" fill="#B0A9A3"/>
<path d="M167.434 12.5334L167.587 12.1348C167.677 12.2646 167.741 12.4116 167.773 12.5666C167.74 12.7297 167.677 12.8852 167.587 13.025L167.434 12.5334Z" fill="#D4D2CA"/>
<path d="M183.799 4.70766C183.048 4.64686 182.347 4.3008 181.842 3.74021C181.336 3.17962 181.064 2.44685 181.08 1.69166C181.173 0.363025 182.599 -0.726463 184.191 -0.679961C185.783 -0.633458 186.552 0.422797 186.446 2.29618C186.347 3.99684 185.471 4.79402 183.799 4.70766Z" fill="#C7C7C4"/>
<path d="M33.0512 128.95C33.0512 127.436 34.2187 126.426 35.9368 126.433C37.2171 126.433 38.7959 127.761 38.6897 128.957C38.5173 130.83 37.7412 132 35.771 131.86C34.0462 131.734 33.0379 130.744 33.0512 128.95Z" fill="#BBB5AB"/>
<path d="M201.319 267.695C201.319 269.589 200.383 270.512 198.572 270.499C196.582 270.499 195.886 269.662 195.919 267.45C195.919 265.849 197.014 264.686 198.367 264.792C200.264 264.905 201.345 265.981 201.319 267.695Z" fill="#D4D2CA"/>
<path d="M9.70763 148.781C10.3724 148.76 11.0196 148.997 11.5139 149.443C12.0083 149.888 12.3118 150.508 12.3611 151.172C12.3802 151.563 12.319 151.954 12.1814 152.32C12.0438 152.687 11.8326 153.021 11.5609 153.302C11.2892 153.584 10.9628 153.806 10.6019 153.956C10.2409 154.106 9.85301 154.181 9.46219 154.175C8.71119 154.148 7.99967 153.831 7.47575 153.292C6.95182 152.752 6.65587 152.031 6.64954 151.278C6.6628 149.85 8.00279 148.781 9.70763 148.781Z" fill="#D4D2CA"/>
<rect opacity="0.2" x="-76.9998" y="-103" width="630.854" height="663" fill="#585838"/>
</g>
<rect x="75" width="150" height="225" fill="#FFFFFC"/>
<rect x="300" y="75" width="150" height="225" transform="rotate(90 300 75)" fill="#FFFFFC"/>
<line x1="225" y1="-1.74846e-07" x2="225" y2="75" stroke="#ACA592" stroke-width="8"/>
<line x1="300" y1="75" x2="221" y2="75" stroke="#ACA592" stroke-width="8"/>
<line x1="300" y1="225" x2="71" y2="225" stroke="#ACA592" stroke-width="8"/>
<line x1="75" y1="-1.74846e-07" x2="75" y2="225" stroke="#ACA592" stroke-width="8"/>
</g>
<defs>
<clipPath id="clip0_148_655">
<rect width="631" height="663" fill="white" transform="translate(554 560) rotate(-180)"/>
</clipPath>
</defs>
</svg>
