<svg width="300" height="300" viewBox="0 0 300 300" fill="none" xmlns="http://www.w3.org/2000/svg">
<rect width="300" height="300" fill="#887F72"/>
<mask id="mask0_148_469" style="mask-type:alpha" maskUnits="userSpaceOnUse" x="0" y="0" width="300" height="300">
<rect width="300" height="300" fill="#C4C4C4"/>
</mask>
<g mask="url(#mask0_148_469)">
<g clip-path="url(#clip0_148_469)">
<path d="M180.947 26.4234C184.815 33.104 187.225 40.5292 188.018 48.2097C188.357 51.2841 188.224 54.3917 188.383 57.5059C188.735 64.5113 189.365 71.4503 190.088 78.449C190.353 80.9723 190.678 83.635 189.889 86.0454C188.713 89.5473 186.225 92.456 182.95 94.1596C180.703 95.3745 178.206 96.056 175.653 96.1516C169.756 96.4571 163.839 96.5434 157.962 97.0946C150.234 97.7064 142.557 98.84 134.983 100.488C126.678 102.42 118.253 103.502 109.775 104.505C103.92 105.277 98.0226 105.692 92.1166 105.747C76.7506 106.018 73.4709 107.825 73.8279 90.0095C73.9672 83.0573 75.5857 76.3308 77.7748 69.8367C81.0451 59.9873 83.5077 49.8873 85.1381 39.6373C85.8015 35.6532 86.5842 31.709 88.9325 28.1963C90.994 25.1721 93.9526 22.8726 97.3904 21.6226C100.9 20.2215 104.614 19.9625 108.289 19.6305C124.767 18.2228 141.278 18.1365 157.789 18.4685C161.106 18.5349 164.529 18.4154 167.839 19.1325C170.91 19.843 178.248 21.7933 180.947 26.4234Z" fill="#BBB5AB"/>
<path d="M169.06 358.398C168.96 352.289 169.298 346.446 169.597 340.609C170.055 331.585 170.625 322.535 172.755 313.683C174.307 307.209 176.416 300.994 181.086 296.014C184.622 292.249 189.113 290.363 194.174 289.805C202.519 288.882 210.334 290.934 217.956 294.121C220.676 295.257 223.482 296.193 226.301 297.063C232.682 299.055 236.55 303.59 239.342 309.361C241.487 313.672 243.251 318.162 244.616 322.78C246.321 328.853 247.603 335.036 248.45 341.286C248.921 344.746 249.419 348.219 249.585 351.698C249.751 355.178 249.193 358.438 247.11 361.287C241.835 368.597 235.509 375.086 228.337 380.543C224.768 383.31 220.93 385.71 216.881 387.708C214.168 388.996 211.183 388.465 208.364 388.04C201.697 387.03 195.421 384.474 188.901 382.841C184.701 381.831 180.598 380.451 176.642 378.717C171.998 376.639 170.075 372.933 169.478 368.212C169.099 364.955 168.96 361.675 169.06 358.398V358.398Z" fill="#C7C7C4"/>
<path d="M127.308 197.892C132.21 195.555 136.834 192.719 141.557 190.063C145.736 187.713 149.663 184.798 154.446 183.715C157.411 183.051 160.084 184.333 160.675 187.195C161.095 188.72 161.408 190.273 161.61 191.843C161.697 193.708 162.174 195.534 163.009 197.204C163.844 198.874 165.02 200.35 166.459 201.538C169.218 203.928 171.409 206.904 172.874 210.249C175.587 216.04 177.212 222.102 177.013 228.59C176.895 236.554 174.169 244.259 169.252 250.522C166.765 253.548 163.995 256.33 160.98 258.829C157.232 262.096 154.267 266.087 150.937 269.745C146.541 274.585 141.402 278.692 135.713 281.91C131.799 284.121 127.719 285.748 123.076 285.748C117.251 285.748 113.543 282.229 111.586 277.587C110.613 275.022 109.867 272.375 109.357 269.679C108.807 267.235 107.553 264.944 106.624 262.581C104.634 257.428 103.633 252.043 102.836 246.591C101.702 238.829 101.808 230.973 100.926 223.198C100.097 215.827 103.44 210.508 109.636 206.73C114.346 203.848 119.54 201.996 124.422 199.492C124.847 199.273 125.231 198.994 125.636 198.742C125.785 198.438 126.029 198.191 126.33 198.037C126.632 197.884 126.975 197.833 127.308 197.892V197.892Z" fill="#BBB5AB"/>
<path d="M242.692 -49.5866C243.614 -58.3649 248.238 -63.3516 256.815 -64.8589C259.789 -65.3944 262.802 -65.6853 265.824 -65.7288C268.159 -65.7288 270.467 -66.1006 272.822 -66.0342C282.295 -65.762 291.788 -65.7022 301.154 -64.009C303.264 -63.6305 304.252 -61.8177 305.44 -60.3768C311.178 -53.4047 313.539 -45.0646 315.018 -36.3594C316.345 -28.3912 316.869 -20.2769 319.118 -12.4548C320.033 -9.25428 319.118 -6.04044 317.612 -3.11214C314.003 3.96627 308.511 9.45106 302.448 14.3847C300.106 16.2838 297.207 15.892 294.773 14.71C290.567 12.6782 286.434 13.1297 282.169 14.0792C277.904 15.0288 273.545 16.2771 269.015 16.3103C266.251 16.3817 263.513 15.756 261.054 14.4909C259.104 13.4683 257.154 12.4457 255.23 11.3833C253.918 10.6942 252.778 9.71781 251.895 8.52681C251.011 7.33581 250.408 5.96084 250.129 4.50413C248.51 -3.15196 246.732 -10.7682 245.28 -18.4642C244.183 -24.1238 243.371 -29.8349 242.845 -35.5759C242.416 -40.4665 242.221 -41.2465 242.692 -49.5866Z" fill="#BBB5AB"/>
<path d="M279.243 168.151C271.97 167.628 264.672 167.519 257.386 167.826C248.762 168.27 240.192 167.998 231.594 168.131C229.877 168.09 228.19 167.663 226.659 166.883C224.297 165.82 223.428 163.689 223.236 161.205C222.964 157.666 223.747 154.24 224.238 150.78C225.22 143.928 226.487 137.128 227.409 130.269C228.019 125.727 228.324 121.139 229.326 116.643C229.87 114.295 231.036 112.136 232.702 110.395C238.527 103.98 245.777 99.8104 253.824 96.8688C261.28 94.1397 269.008 92.7453 276.869 91.8954C281.114 91.4438 285.366 91.4505 289.612 91.2313C291.874 91.1596 294.139 91.2907 296.378 91.6231C298.978 91.9617 299.993 93.3031 300.896 96.8223C302.269 102.168 301.692 107.593 301.068 112.991C300.352 119.113 299.642 125.236 298.872 131.358C297.804 139.851 297.546 148.45 295.555 156.823C294.972 159.592 293.8 162.203 292.119 164.479C291.255 165.597 290.15 166.506 288.887 167.14C287.624 167.773 286.235 168.114 284.822 168.138C282.965 168.211 281.101 168.151 279.243 168.151Z" fill="#C7C7C4"/>
<path d="M243.807 276.272C243.755 271.413 244.319 266.567 245.485 261.85C245.994 259.848 246.796 257.932 247.867 256.166C248.435 255.182 249.223 254.343 250.169 253.714C251.115 253.085 252.193 252.683 253.319 252.541C260.311 251.405 267.323 250.376 274.427 250.548C281.021 250.701 287.695 251.325 293.128 255.356C298.56 259.387 304.504 263.424 307.576 270.024C308.975 273.032 309.493 276.332 310.673 279.427C311.313 281.093 312.059 282.717 312.909 284.287C318.342 294.433 320.305 305.097 317.446 316.406C316.863 319.192 315.48 321.746 313.466 323.756C312.76 324.468 311.906 325.016 310.965 325.361C310.024 325.705 309.018 325.837 308.02 325.748C298.408 324.878 288.783 325.084 279.137 325.084C274.122 325.084 269.101 325.35 264.099 324.593C258.759 323.789 255.044 320.994 252.782 316.074C250.52 311.153 249.585 305.702 248.225 300.449C246.659 294.393 244.908 288.371 244.105 282.142C243.898 280.193 243.798 278.233 243.807 276.272Z" fill="#D4D2CA"/>
<path d="M358.886 191.63C358.793 195.913 357.878 199.459 357.327 203.058C357.142 204.28 356.87 205.488 356.664 206.704C355.901 211.352 352.505 213.828 348.916 216.099C344.04 219.067 338.91 221.593 333.586 223.649C327.844 225.987 322.667 229.526 318.402 234.028C315.204 237.348 312.106 240.781 308.803 243.988C306.362 246.359 303.622 248.271 299.887 248.052C297.851 247.932 296.192 247.009 294.58 245.973C291.678 243.973 289.186 241.435 287.237 238.497C282.327 231.763 278.275 224.442 275.177 216.704C273.638 212.72 274.374 209.34 276.212 205.887C278.693 201.239 282.408 197.646 286.613 194.638C294.156 189.233 300.617 182.686 306.979 176.046C312.756 169.964 318.693 164.014 325.294 158.782C326.777 157.672 328.553 157.025 330.402 156.922C334.382 156.497 338.03 157.082 341.181 159.751C344.332 162.42 346.083 165.767 347.151 169.658C348.77 175.596 351.86 181.03 356.133 185.455C358.064 187.427 359.245 189.466 358.886 191.63Z" fill="#BBB5AB"/>
<path d="M52.8192 320.728C53.0713 314.872 53.6485 310.191 56.2356 306.02C58.0684 303.189 60.3544 300.678 63.0018 298.59C69.8344 292.953 76.6139 287.262 83.0551 281.173C84.9922 279.334 87.241 277.853 89.1647 275.974C92.4815 272.773 97.3439 273.603 100.833 275.443C103.977 277.096 106.034 279.878 108.044 282.68C110.299 285.828 113.218 288.371 115.818 291.2C121.961 297.84 123.062 305.589 121.019 313.989C120.303 316.93 118.485 319.473 116.767 321.957C109.55 332.342 103.274 343.298 96.8663 354.162C94.8762 357.482 92.6009 358.285 88.906 356.884C83.0949 354.68 78.206 351.047 73.536 347.07C67.3004 341.758 61.5955 335.928 56.8989 329.142C54.8889 326.273 52.7662 323.411 52.8192 320.728Z" fill="#C7C7C4"/>
<path d="M31.4193 44.0596C31.4193 47.8378 31.4193 51.6094 30.5769 55.3478C30.0578 57.2286 29.0063 58.9189 27.5492 60.2149C26.092 61.5109 24.2914 62.3573 22.3645 62.652C15.3461 63.3891 8.36097 63.243 1.53501 61.3904C-5.58282 59.4648 -8.70061 55.0291 -9.07872 47.9507C-9.40377 41.8816 -8.20972 35.9254 -7.29428 29.9625C-6.88963 27.3065 -6.6309 24.6504 -6.23288 21.9943C-5.0123 14.232 -2.57116 6.92116 1.91978 0.400525C4.17289 -3.06345 6.97078 -6.13991 10.2051 -8.70975C15.512 -12.6938 21.3694 -15.6753 27.9831 -16.917C29.5158 -17.2598 31.0659 -17.5192 32.6266 -17.6939C36.7925 -17.9994 40.9584 -17.6939 45.1243 -17.5213C48.3248 -17.4472 51.5154 -17.1365 54.67 -16.5916C55.5501 -16.4625 56.3824 -16.1097 57.0874 -15.5668C57.7923 -15.0239 58.3464 -14.3091 58.6966 -13.4907C61.0648 -8.49727 61.6021 -3.21169 60.9122 2.20667C60.753 3.48822 60.6734 4.78307 60.4213 6.0779C59.4064 11.1643 56.4412 14.5043 51.8508 16.7022C47.5854 18.734 43.1077 20.3144 39.0214 22.7447C34.5636 25.4007 32.5669 29.4778 31.8173 34.3849C31.4233 37.5937 31.2901 40.8292 31.4193 44.0596V44.0596Z" fill="#C7C7C4"/>
<path d="M167.421 10.892C160.147 11.0133 152.873 10.5849 145.663 9.61048C145.192 9.54408 144.728 9.39132 144.263 9.29172C138.552 8.15626 137.59 7.1005 136.389 1.40989C135.212 -4.08375 134.487 -9.66463 134.22 -15.2768C134.094 -18.1586 133.908 -21.0338 133.908 -23.909C133.908 -27.8001 134.572 -31.5319 136.515 -34.9781C138.185 -37.9293 140.856 -40.1838 144.044 -41.3328C148.19 -42.9397 152.542 -43.4576 156.854 -44.1548C164.078 -45.3301 171.315 -46.4457 178.532 -47.6675C183.043 -48.4311 187.514 -49.4935 192.131 -49.613C195.375 -49.6993 197.763 -48.285 199.82 -45.9742C201.876 -43.6635 203.216 -40.8082 204.463 -38.006C209.818 -25.9741 211.707 -19.666 207.395 -1.87034C202.088 2.71137 195.747 5.24126 189.159 7.27978C184.177 8.82153 175.554 10.8921 167.421 10.892Z" fill="#C7C7C4"/>
<path d="M166.147 100.328C167.379 100.239 168.616 100.265 169.842 100.408C174.32 101.251 176.323 105.242 176.94 109.2C177.324 112.06 177.464 114.948 177.358 117.832C177.285 122.314 178.174 126.69 178.685 131.112C179.275 136.006 180.304 140.833 180.675 145.72C180.874 148.124 180.914 150.521 181.053 152.918C181.265 156.471 179.302 158.802 176.96 161.033C173.962 163.888 170.327 165.681 166.658 167.387C160.516 170.203 155.069 174.227 149.159 177.434C146.764 178.762 144.376 180.09 141.676 180.754C138.538 181.491 136.263 180.594 134.379 177.945C131.659 174.167 130.518 169.831 129.736 165.329C128.542 158.616 128.31 151.843 128.031 145.05C127.825 139.99 126.916 134.97 126.571 129.917C126.3 125.893 125.908 121.849 126.492 117.805C126.64 116.512 127.101 115.275 127.837 114.202C128.572 113.129 129.559 112.253 130.711 111.65C135.384 108.935 140.29 106.644 145.371 104.804C151.048 102.774 156.902 101.282 162.857 100.348C163.952 100.259 165.052 100.252 166.147 100.328V100.328Z" fill="#D4D2CA"/>
<path d="M61.4562 127.048C57.8011 134.611 53.2571 141.657 48.7197 148.689C48.095 149.767 47.1844 150.652 46.0886 151.245C44.9928 151.838 43.7545 152.116 42.5106 152.049C38.9086 151.982 35.3065 152.215 32.3745 149.572C29.7464 147.26 27.4415 144.604 25.522 141.677C24.229 139.755 22.5505 138.125 20.5933 136.889C15.2068 133.184 9.92642 129.386 5.80695 124.193C3.00758 120.674 2.57641 116.716 3.96284 112.699C7.49191 102.506 11.2598 92.3999 14.9149 82.2471C16.037 78.9311 17.3346 75.6773 18.8022 72.4994C19.7243 70.6136 20.7922 69.6308 23.2599 69.9296C29.0366 70.7176 34.7432 71.9542 40.3282 73.6282C45.8897 75.1655 51.2971 77.2149 56.481 79.7504C58.345 80.68 60.0897 81.7425 61.2108 83.8076C68.4026 97.6218 67.5365 114.473 61.4562 127.048Z" fill="#BBB5AB"/>
<path d="M4.07573 314.473C4.28137 307.614 4.7391 300.768 5.28969 293.929C5.49533 291.332 5.73413 288.73 5.82701 286.12C6.01275 280.894 6.00611 275.662 6.28473 270.449C6.5965 264.652 6.87511 258.782 9.05756 253.264C9.1836 252.946 9.29635 252.6 9.41576 252.295C12.0095 245.197 17.6945 245.748 22.2849 248.928C27.0545 252.249 30.5504 256.704 34.0197 261.206C38.6301 267.377 42.7026 273.933 46.1923 280.801C48.2463 284.679 50.0801 288.669 51.685 292.753C52.4677 294.746 52.534 296.319 51.1277 298.411C46.7363 304.938 43.1674 311.89 43.791 320.177C44.0298 323.358 43.4792 326.479 42.9551 329.593C42.6036 331.671 41.2503 333.239 39.6383 334.44C36.39 336.901 32.4345 338.244 28.3613 338.272C22.8156 338.398 17.3429 337.92 12.3544 335.31C9.10397 333.61 7.00776 330.802 5.68104 327.296C4.12878 323.086 4.04256 318.809 4.07573 314.473Z" fill="#D4D2CA"/>
<path d="M186.745 270.257C185.723 266.472 185.418 262.567 185.179 258.676C184.45 247.667 184.907 236.637 184.768 225.621C184.701 222.253 185.149 218.894 186.095 215.661C187.965 209.393 190.99 207.925 197.332 209.685C203.024 211.226 208.39 213.822 214.208 214.997C217.351 215.694 220.561 216.048 223.78 216.053C228.112 215.98 230.845 217.999 232.404 221.764C236.095 230.776 238.423 255.371 238.002 266.073C237.757 272.262 237.631 278.557 235.263 284.46C233.777 288.158 230.115 289.241 226.765 287.116C223.866 285.283 221.511 282.753 218.467 281.093C213.093 278.165 207.594 275.887 201.325 276.133C196.198 276.351 187.164 271.809 186.745 270.257Z" fill="#D4D2CA"/>
<path d="M69.1711 217.188C80.9921 217.461 88.5146 222.235 93.7153 230.827C97.7588 237.258 99.8342 244.732 99.6856 252.328C99.636 254.737 98.9493 257.091 97.6955 259.148C94.0935 265.124 88.6871 269.194 82.9026 272.846C78.7702 275.406 74.4032 277.565 69.8609 279.294C67.5888 280.279 65.0383 280.411 62.6768 279.666C57.4628 278.026 54.0531 274.281 50.8093 270.223C49.0647 268.039 47.4196 265.775 45.7214 263.543C44.0232 261.312 41.7943 259.925 39.9568 257.979C37.5554 255.449 35.1474 252.952 33.3563 249.905C31.1407 246.14 32.5868 243.045 34.9617 240.124C37.5355 236.956 40.8125 234.586 44.0828 232.189C48.7263 228.782 53.1908 225.137 57.8608 221.777C61.6685 219.048 65.768 216.717 69.1711 217.188Z" fill="#D4D2CA"/>
<path d="M89.9077 -38.4245C96.5413 -38.4245 103.002 -37.1761 109.404 -35.5825C112.469 -34.8188 115.467 -33.7166 118.565 -33.1721C123.208 -32.3487 125.305 -29.188 126.392 -25.1375C127.626 -20.5292 127.719 -15.7616 127.772 -11.0205C127.73 -9.57501 127.936 -8.13303 128.382 -6.75755C128.993 -5.13071 128.727 -3.71634 128.17 -2.17582C126.757 1.74188 125.119 5.52013 121.802 8.2426C118.644 10.8323 114.804 11.7353 110.883 12.0474C105.47 12.479 100.143 13.4352 94.8033 14.3383C89.4633 15.2413 84.2625 15.2347 79.1016 13.6742C76.4367 12.9309 73.9869 11.5635 71.9544 9.68491C69.922 7.80634 68.3654 5.47059 67.4132 2.87068C64.8554 -3.75487 63.9448 -10.9035 64.7598 -17.9595C65.1047 -21.4522 65.2374 -24.9582 66.5376 -28.265C67.38 -30.3965 68.5277 -32.289 70.6305 -33.5041C76.886 -37.0633 82.0469 -38.4311 89.9077 -38.4245Z" fill="#B5AFA8"/>
<path d="M-55.0628 114.731C-55.6731 104.85 -51.2352 96.6496 -43.2218 90.4676C-34.2513 83.492 -24.4131 77.7131 -13.9544 73.2762C-10.4452 71.8021 -6.72376 71.7025 -3.03549 71.4103C-0.84977 71.1927 1.31953 70.8334 3.45878 70.3346C6.92152 69.5909 9.09732 71.3174 9.04425 74.8898C8.97792 78.8739 7.53845 82.5658 6.03926 86.1781C4.37422 90.1622 2.51019 94.0931 0.778824 98.0706C-2.20629 104.95 -4.475 112.095 -6.90953 119.186C-7.12844 119.85 -7.44686 120.448 -7.67241 121.099C-8.68735 124.047 -10.6708 125.667 -13.7156 126.656C-21.6228 129.213 -29.3576 132.287 -37.444 134.293C-39.7149 134.857 -42.0497 135.123 -44.3893 135.083C-48.993 134.997 -51.8322 132.965 -53.3314 128.556C-54.7908 124.266 -55.0031 119.797 -55.0628 114.731Z" fill="#908787"/>
<path d="M73.3967 125.913C75.1479 125.999 77.1446 127.327 78.4382 129.591C80.2956 132.839 81.1314 136.457 81.8213 140.09C82.7235 144.884 83.367 149.724 83.0552 154.618C82.624 161.531 81.9938 168.45 79.42 174.97C78.2964 177.907 76.8052 180.689 74.9821 183.251C70.1396 189.891 65.5226 196.67 60.7133 203.33C59.3866 205.137 57.9338 206.836 55.5324 207.487C53.1311 208.138 50.8889 207.487 48.8591 206.398C44.8789 204.233 40.8258 202.241 37.2105 199.532C33.708 196.876 30.5769 193.981 28.3148 190.024C25.7609 185.581 26.5901 181.903 29.1573 178.071C32.8124 172.567 37.6549 168.244 42.6699 164.061C49.58 158.385 55.1084 151.21 58.836 143.078C60.9279 138.396 63.3809 133.885 66.1727 129.585C67.7979 127.095 69.8676 125.926 73.3967 125.913Z" fill="#D9DCDB"/>
<path d="M271.907 23.6477C279.316 23.6216 286.7 24.5002 293.897 26.264C297.877 27.1936 300.305 29.7368 301.048 33.8537C301.754 37.1506 301.888 40.5444 301.446 43.887C301.333 45.1232 301.313 46.3662 301.386 47.6054C301.371 56.0587 300.792 64.5016 299.655 72.8779C299.224 75.866 298.673 78.9603 295.794 80.7598C293.804 82.0147 291.443 82.3733 289.161 82.8248L276.252 85.3946C273.898 85.8614 271.512 86.15 269.114 86.2578C264.079 86.4836 262.374 84.2259 262.149 79.2192C262.009 76.2046 262.487 73.19 262.56 70.1621C262.779 61.4568 260.815 53.1367 258.58 44.8232C257.205 39.9159 256.767 34.7934 257.286 29.7235C257.598 26.9878 259.276 25.7394 261.472 24.9426C265.048 23.6212 268.756 23.5614 271.907 23.6477Z" fill="#B5AFA8"/>
<path d="M-1.23113 134.565C2.45714 134.499 4.79878 136.643 7.29301 138.41C9.07744 139.671 10.7425 141.099 12.4606 142.447C13.6938 143.401 15.8629 146.745 17.2102 148.31C20.1821 151.77 23.3529 155.076 26.1987 158.655C28.4542 161.504 28.5537 164.632 27.1606 167.952C25.2634 172.44 21.993 175.834 18.5369 179.094C14.5104 182.872 9.68113 184.3 4.25485 184.293C-0.76014 184.293 -5.74197 184.14 -10.6774 183.058C-13.335 182.384 -15.8081 181.122 -17.9146 179.366C-19.5929 178.038 -21.3442 176.889 -23.122 175.741C-25.9545 173.908 -29.2249 173.29 -32.3427 172.42C-36.3228 171.278 -38.1603 168.888 -38.4853 164.95C-38.6114 163.383 -39.0957 161.869 -39.3477 160.302C-40.3295 154.419 -37.4173 150.428 -33.1851 147.102C-28.0441 143.064 -22.0938 140.674 -15.9378 138.649C-12.024 137.367 -8.04383 136.358 -4.13665 135.07C-3.21084 134.711 -2.2234 134.54 -1.23113 134.565Z" fill="#D4D2CA"/>
<path d="M227.15 208.689C222.848 208.413 218.599 207.587 214.506 206.232C209.352 204.612 204.105 203.324 198.858 202.029C192.761 200.522 186.519 199.579 180.569 197.494C177.631 196.506 174.913 194.954 172.569 192.925C170.532 191.113 170.313 188.41 170.439 186.066C170.672 181.909 171.587 177.806 173.882 174.114C178.061 167.434 184.131 164.917 191.594 166.511C196.762 167.606 201.664 169.499 206.705 170.953C213.279 172.852 219.866 174.725 226.354 176.883C228.915 177.644 231.351 178.776 233.585 180.243C234.921 181.1 236.006 182.296 236.73 183.71C237.453 185.124 237.789 186.704 237.704 188.291C237.585 192.673 238.075 197.075 237.041 201.431C235.9 206.079 232.828 208.649 227.999 208.656L227.15 208.689Z" fill="#D9DCDB"/>
<path d="M244.669 60.2284C246.387 60.2284 248.178 59.9097 249.804 60.2948C253.12 61.0916 254.314 63.7344 254.62 66.935C255.077 71.7159 255.84 76.4902 255.429 81.3109C255.177 84.3455 254.553 87.287 252.165 89.5181C249.871 91.5961 247.293 93.3377 244.51 94.6908C239.447 97.2749 234.207 99.4939 228.828 101.331C225.359 102.5 222.314 101.856 219.362 100.255C213.014 96.8223 208.085 91.8688 204.151 85.8063C201.956 82.4198 200.019 78.9337 199.448 74.9297C198.652 69.3387 199.043 66.3905 204.025 63.4821C206.015 62.3134 208.476 62.2005 210.752 61.8088C214.748 61.1309 218.8 60.8396 222.851 60.9389C230.142 61.0784 237.392 60.2815 244.669 60.2284Z" fill="#C7C7C4"/>
<path d="M116.555 196.298C113.324 197.195 110.114 198.151 106.73 198.357C105.298 198.443 104.448 197.925 103.46 196.803C100.681 193.662 98.0272 190.449 95.4998 187.082C91.7239 182.087 89.1477 176.288 87.9706 170.136C87.4134 167.221 87.7252 164.399 88.0901 161.551C88.6738 157.009 89.1979 152.454 90.4782 148.025C91.7054 143.782 93.9741 140.521 98.3191 138.921C103.219 137.082 108.522 136.591 113.676 137.5C116.933 138.058 118.545 140.276 119.401 143.197C120.941 148.813 121.942 154.563 122.392 160.369C122.752 164.257 123.337 168.122 124.144 171.942C125.47 178.237 125.988 184.413 123.202 190.462C122.711 192.859 119.248 195.893 116.555 196.298Z" fill="#D4D2CA"/>
<path d="M225.299 54.3386C222.577 54.3559 219.855 54.2251 217.146 53.9468C211.714 53.2496 210.307 49.5178 211.037 45.1619C212.224 38.0768 213.498 31.0051 214.48 23.9134C215.216 18.5614 215.607 13.1563 216.656 7.85082C217.319 4.37138 218.341 0.964956 220.682 -1.92351C222.459 -4.01615 224.743 -5.61669 227.316 -6.57162C229.196 -7.39045 231.184 -7.93172 233.22 -8.17853C236.152 -8.48398 237.863 -7.00321 239.077 -4.59947C240.755 -1.31924 242.586 1.88134 243.508 5.50022C244.445 8.99455 245.169 12.5425 245.678 16.1245C246.215 20.2148 245.744 24.2255 245.492 28.2361C245.18 33.1498 245.233 38.1101 244.324 42.9773C243.955 45.2904 243.11 47.5016 241.843 49.4713C239.807 52.4727 236.709 53.5086 233.399 53.8871C230.453 54.1925 227.508 54.6108 225.299 54.3386Z" fill="#D9DCDB"/>
<path d="M-5.41696 218.802C-4.6939 213.995 -5.48992 208.842 -4.58112 203.809C-4.03717 200.801 -3.18144 197.925 -1.18473 195.508C2.37751 191.192 7.20675 191.04 12.2018 191.451C13.0178 191.518 13.8204 191.783 14.6364 191.83C20.4407 192.155 23.6382 196.418 27.1407 200.156C30.9351 204.214 34.1922 208.789 38.9352 211.91C39.6492 212.451 40.301 213.07 40.8788 213.755C43.8175 216.783 44.2553 219.977 41.2769 222.833C34.4907 229.333 27.7974 236.113 18.0129 238.145C12.8984 239.194 7.84358 239.566 2.79542 237.66C-1.43681 236.066 -3.69223 233.012 -4.50152 228.696C-5.11845 225.515 -5.14498 222.275 -5.41696 218.802Z" fill="#B0A9A3"/>
<path d="M216.742 118.29C215.335 128.562 215.939 138.874 215.787 149.226C215.797 150.023 215.623 150.811 215.278 151.529C214.933 152.247 214.426 152.875 213.797 153.363C212.459 154.336 211.331 155.569 210.48 156.989C209.816 158.244 208.43 158.655 207.163 158.921C201.71 160.096 196.496 159.851 192.038 155.913C190.392 154.342 189.144 152.4 188.396 150.249C186.44 145.302 186.287 140.056 185.982 134.844C185.829 132.241 185.717 129.611 185.683 127.015C185.61 119.93 186.227 112.878 188.231 106.026C188.467 105.305 188.753 104.602 189.086 103.921C190.519 100.707 192.788 99.0335 196.523 99.3389C202.645 99.837 208.058 101.995 212.496 106.172C215.959 109.399 217.014 113.655 216.742 118.29Z" fill="#B6AFA8"/>
<path d="M49.7745 29.4779C56.5407 29.7235 63.2937 30.1419 69.9472 31.5562C75.6388 32.7979 78.9158 37.7116 77.5626 43.6546C76.0823 50.1905 73.9281 56.5549 71.1346 62.6454C70.3624 64.4529 69.4761 66.2095 68.4812 67.9044C66.5774 70.9589 64.5674 71.8885 61.0317 71.1714C57.496 70.4542 54.0929 69.3918 51.0813 67.4064C48.3549 65.6156 46.3593 62.9067 45.456 59.7702C43.5323 53.2031 41.708 46.6094 39.9369 40.0091C39.3734 38.1813 39.2283 36.25 39.5123 34.3583C40.0695 31.4566 42.1658 29.9094 45.6219 29.5044C47.0045 29.4181 48.3909 29.4093 49.7745 29.4779Z" fill="#D9DCDB"/>
<path d="M248.019 185.973C247.469 179.333 251.495 177.288 256.57 176.405C259.98 175.814 263.422 175.873 266.845 175.701C270.985 175.488 274.985 174.446 279.084 174.094C281.955 173.737 284.867 173.963 287.648 174.758C290.116 175.568 291.025 177.5 290.176 179.977C288.889 183.729 286.375 186.657 283.602 189.359C277.671 195.15 271.223 200.282 263.887 204.18C261.792 205.389 259.437 206.073 257.021 206.172C253.704 206.206 251.416 204.692 250.096 201.644C249.187 199.355 248.647 196.937 248.497 194.479C248.231 191.511 248.158 188.549 248.019 185.973Z" fill="#B0A9A3"/>
<path d="M260.955 214.878C264.583 214.346 267.071 215.973 268.829 218.975C270.892 222.507 273.585 225.675 275.011 229.599C275.767 231.684 276.338 233.795 276.066 236.04C275.555 240.024 272.816 241.923 269.359 242.972C267.315 243.565 265.199 243.873 263.071 243.889C259.23 243.968 255.382 243.636 251.535 244.214C249.485 244.526 247.422 243.902 245.512 243.171C244.903 242.96 244.351 242.61 243.9 242.149C243.449 241.688 243.11 241.129 242.911 240.515C241.849 237.441 240.529 234.641 241.047 231.392C241.571 228.138 241.047 224.752 242.573 221.604C243.192 220.261 244.112 219.078 245.263 218.15C246.414 217.221 247.764 216.572 249.207 216.252C253.041 215.25 257.021 215.13 260.955 214.878Z" fill="#D4D2CA"/>
<path d="M111.911 108.443C112.701 108.443 113.112 108.443 113.523 108.443C119.533 108.111 120.906 111.371 120.203 116.178C119.5 120.986 117.404 125.541 114.956 129.784C113.43 132.44 110.498 132.839 107.812 133.343C103.692 134.107 99.5529 134.751 95.4069 135.335C93.9718 135.511 92.5223 135.538 91.0818 135.415C88.8993 135.262 87.9308 133.582 87.221 131.842C85.7219 128.177 86.0535 124.379 86.9888 120.68C88.8065 113.476 92.9591 110.149 100.362 109.326C104.329 108.881 108.309 108.775 111.911 108.443Z" fill="#B0A9A3"/>
<path d="M189.783 25.5269C189.678 22.6516 189.93 19.7744 190.533 16.9611C191.276 13.2824 193.81 10.985 197.524 10.8721C199.793 10.7924 202.068 10.7924 204.337 10.8721C207.853 10.9982 209.843 13.1497 210.015 16.6557C210.175 19.8562 209.551 22.9837 208.987 26.0714C207.972 31.6757 207.316 37.3597 206.334 42.944C205.352 48.5284 202.632 51.304 196.901 51.7555C194.858 51.9149 192.695 50.4275 191.78 48.2894C190.453 45.2416 190.566 41.9613 190.227 38.7674C190.002 36.5828 190.227 34.3583 190.048 32.1272C189.869 29.8961 189.756 27.9174 189.783 25.5269Z" fill="#B0A9A3"/>
<path d="M158.731 296.346C156.025 296.937 154.479 295.974 153.371 293.457C150.758 287.528 151.786 282.302 155.965 277.448C159.633 273.192 163.116 268.763 166.691 264.427C168.126 262.661 169.882 261.183 171.866 260.071C174.519 258.59 176.038 259.241 176.934 262.215C177.743 264.911 177.524 267.7 177.259 270.416C175.571 288.249 167.28 294.464 158.731 296.346Z" fill="#B6AFA8"/>
<path d="M72.2491 201.372C72.5162 198.635 73.3903 195.993 74.8076 193.638C76.225 191.283 78.1498 189.275 80.4415 187.759C81.0631 187.376 81.7641 187.14 82.4908 187.07C83.2175 187 83.9506 187.097 84.634 187.354C86.4889 187.88 88.192 188.841 89.6025 190.156C92.381 192.928 94.8643 195.981 97.0122 199.267C99.4865 202.879 98.8431 208.563 95.8049 211.943C95.1416 212.706 94.3721 213.43 93.6225 214.141C89.901 217.666 86.4781 217.959 82.2923 215.01C79.1148 212.779 76.541 209.891 73.9871 207.002C73.3334 206.229 72.8424 205.332 72.5438 204.365C72.2451 203.397 72.1449 202.379 72.2491 201.372V201.372Z" fill="#B0A9A3"/>
<path d="M142.472 289.433C143.356 289.378 144.242 289.378 145.126 289.433C147.892 289.792 149.424 291.651 149.696 294.407C150.041 297.913 148.549 300.383 145.769 302.242C141.411 305.184 136.482 306.306 131.354 306.625C130.316 306.728 129.272 306.494 128.376 305.959C127.481 305.423 126.781 304.614 126.379 303.65C125.359 301.535 124.826 299.218 124.82 296.87C124.783 296.32 124.913 295.772 125.194 295.298C125.475 294.823 125.893 294.446 126.392 294.214C131.344 291.476 136.83 289.845 142.472 289.433V289.433Z" fill="#B0A9A3"/>
<path d="M167.434 12.4789L167.587 12.0806C167.677 12.2104 167.741 12.3572 167.773 12.5122C167.74 12.6752 167.677 12.8306 167.587 12.9703L167.434 12.4789Z" fill="#D4D2CA"/>
<path d="M183.799 4.65688C183.048 4.59611 182.347 4.25021 181.842 3.68988C181.336 3.12955 181.064 2.39712 181.08 1.64228C181.173 0.314262 182.599 -0.774722 184.191 -0.728241C185.783 -0.68176 186.552 0.374005 186.446 2.24652C186.347 3.94639 185.471 4.7432 183.799 4.65688Z" fill="#C7C7C4"/>
<path d="M33.0511 128.841C33.0511 127.327 34.2187 126.318 35.9368 126.325C37.2171 126.325 38.7959 127.653 38.6897 128.848C38.5172 130.72 37.7411 131.889 35.7709 131.75C34.0462 131.623 33.0379 130.634 33.0511 128.841Z" fill="#BBB5AB"/>
<path d="M201.319 267.521C201.319 269.413 200.383 270.336 198.572 270.323C196.582 270.323 195.886 269.486 195.919 267.275C195.919 265.675 197.014 264.513 198.367 264.619C200.264 264.732 201.345 265.808 201.319 267.521Z" fill="#D4D2CA"/>
<path d="M9.7076 148.662C10.3724 148.641 11.0195 148.878 11.5139 149.324C12.0083 149.769 12.3118 150.388 12.3611 151.052C12.3801 151.443 12.319 151.834 12.1814 152.2C12.0437 152.566 11.8326 152.9 11.5609 153.181C11.2892 153.463 10.9628 153.685 10.6018 153.835C10.2409 153.985 9.85298 154.06 9.46216 154.054C8.71116 154.026 7.99964 153.71 7.47571 153.171C6.95179 152.632 6.65584 151.911 6.64951 151.159C6.66277 149.731 8.00276 148.662 9.7076 148.662Z" fill="#D4D2CA"/>
<rect opacity="0.2" x="-76.9998" y="-103" width="630.854" height="662.688" fill="#585838"/>
</g>
<rect x="75" width="150" height="300" fill="#FFFFFC"/>
<line x1="225" y1="-1.74846e-07" x2="225" y2="300" stroke="#ACA592" stroke-width="8"/>
<line x1="75" y1="-1.74846e-07" x2="75" y2="300" stroke="#ACA592" stroke-width="8"/>
</g>
<defs>
<clipPath id="clip0_148_469">
<rect width="631" height="662.688" fill="white" transform="translate(554 559.688) rotate(-180)"/>
</clipPath>
</defs>
</svg>
