<svg width="400" height="400" viewBox="0 0 400 400" fill="none" xmlns="http://www.w3.org/2000/svg">
<g clip-path="url(#clip0_1_31)">
<rect width="400" height="400" transform="translate(3.05176e-05 400) rotate(-90)" fill="white"/>
<rect x="3.05176e-05" y="78" width="78" height="78" transform="rotate(-90 3.05176e-05 78)" fill="#D7D7D7"/>
<rect x="322" y="78" width="78" height="78" transform="rotate(-90 322 78)" fill="#D7D7D7"/>
<rect x="3.05176e-05" y="400" width="78" height="400" transform="rotate(-90 3.05176e-05 400)" fill="#D7D7D7"/>
<line x1="-4.37114e-07" y1="322" x2="405" y2="322" stroke="black" stroke-width="10"/>
<line y1="78" x2="83" y2="78" stroke="black" stroke-width="10"/>
<line x1="322" y1="78" x2="400" y2="78" stroke="black" stroke-width="10"/>
<line x1="78" y1="-5" x2="78" y2="73" stroke="black" stroke-width="10"/>
<line x1="322" y1="-2.18557e-07" x2="322" y2="83" stroke="black" stroke-width="10"/>
</g>
<defs>
<clipPath id="clip0_1_31">
<rect width="400" height="400" fill="white" transform="translate(3.05176e-05 400) rotate(-90)"/>
</clipPath>
</defs>
</svg>
